<?xml version="1.0" encoding="UTF-8" standalone="no"?>
<svg
   width="900px"
   height="900px"
   viewBox="0 0 900 900"
   version="1.1"
   xml:space="preserve"
   id="SVGRoot"
   inkscape:version="1.4.2 (f4327f4, 2025-05-13)"
   sodipodi:docname="semana11.davidguarin.svg"
   xmlns:inkscape="http://www.inkscape.org/namespaces/inkscape"
   xmlns:sodipodi="http://sodipodi.sourceforge.net/DTD/sodipodi-0.dtd"
   xmlns="http://www.w3.org/2000/svg"
   xmlns:svg="http://www.w3.org/2000/svg"><defs
   id="defs6" />
<sodipodi:namedview
   pagecolor="#a9a9a9"
   bordercolor="#292929"
   borderopacity="1"
   inkscape:showpageshadow="2"
   inkscape:pageopacity="0.0"
   inkscape:pagecheckerboard="0"
   inkscape:deskcolor="#232323"
   id="namedview1"
   inkscape:zoom="0.69666667"
   inkscape:cx="450"
   inkscape:cy="450"
   inkscape:window-width="1600"
   inkscape:window-height="829"
   inkscape:window-x="-8"
   inkscape:window-y="-8"
   inkscape:window-maximized="1"
   inkscape:current-layer="SVGRoot" />
<style
   type="text/css"
   id="style1">
g.prefab path {
  vector-effect:non-scaling-stroke;
  -inkscape-stroke:hairline;
  fill: none;
  fill-opacity: 1;
  stroke-opacity: 1;
  stroke: #00349c;
}
</style>
<g
   inkscape:label="Kitchen Tile"
   style="fill: white; stroke-width: 2; stroke: black;"
   class="prefab"
   id="g6">
  <path
   d="M 850.56495,41.294033 H 50.740591 L 850.56495,841.29403 Z m -397.84401,0 H 851.03347 V 841.29403 H 452.72094 Z M 51.209117,441.29403 H 851.03347 v 400 H 51.209117 Z m 0,-399.999997 H 851.03347 L 51.209117,841.29403 Z"
   id="path1" />
  <path
   d="M 251.1652,41.294033 A 199.95609,200 0 0 0 51.209117,241.29403 a 199.95609,200 0 0 0 199.956083,200 199.95609,200 0 0 0 199.95609,-200 A 199.95609,200 0 0 0 251.1652,41.294033 Z m 0,66.666667 A 133.30406,133.33333 0 0 1 384.46926,241.29403 133.30406,133.33333 0 0 1 251.1652,374.62736 133.30406,133.33333 0 0 1 117.86115,241.29403 133.30406,133.33333 0 0 1 251.1652,107.9607 Z m 0,66.66666 a 66.652028,66.666666 0 0 0 -66.65203,66.66667 66.652028,66.666666 0 0 0 66.65203,66.66668 66.652028,66.666666 0 0 0 66.65204,-66.66668 66.652028,66.666666 0 0 0 -66.65204,-66.66667 z"
   id="path2" />
  <path
   d="m 651.07738,41.294033 a 199.95609,200 0 0 0 -199.95609,199.999997 199.95609,200 0 0 0 199.95609,200 199.95609,200 0 0 0 199.95609,-200 A 199.95609,200 0 0 0 651.07738,41.294033 Z m 0,66.666667 A 133.30406,133.33333 0 0 1 784.38143,241.29403 133.30406,133.33333 0 0 1 651.07738,374.62736 133.30406,133.33333 0 0 1 517.77333,241.29403 133.30406,133.33333 0 0 1 651.07738,107.9607 Z m 0,66.66666 a 66.652028,66.666666 0 0 0 -66.65203,66.66667 66.652028,66.666666 0 0 0 66.65203,66.66668 66.652028,66.666666 0 0 0 66.65203,-66.66668 66.652028,66.666666 0 0 0 -66.65203,-66.66667 z"
   id="path3" />
  <path
   d="m 251.1652,441.29403 a 199.95609,200 0 0 0 -199.956083,200 199.95609,200 0 0 0 199.956083,200 199.95609,200 0 0 0 199.95609,-200 199.95609,200 0 0 0 -199.95609,-200 z m 0,66.66668 A 133.30406,133.33333 0 0 1 384.46926,641.29403 133.30406,133.33333 0 0 1 251.1652,774.62736 133.30406,133.33333 0 0 1 117.86115,641.29403 133.30406,133.33333 0 0 1 251.1652,507.96071 Z m 0,66.66665 a 66.652028,66.666666 0 0 0 -66.65203,66.66667 66.652028,66.666666 0 0 0 66.65203,66.66668 66.652028,66.666666 0 0 0 66.65204,-66.66668 66.652028,66.666666 0 0 0 -66.65204,-66.66667 z"
   id="path4" />
  <path
   d="m 651.07738,441.29403 a 199.95609,200 0 0 0 -199.95609,200 199.95609,200 0 0 0 199.95609,200 199.95609,200 0 0 0 199.95609,-200 199.95609,200 0 0 0 -199.95609,-200 z m 0,66.66668 A 133.30406,133.33333 0 0 1 784.38143,641.29403 133.30406,133.33333 0 0 1 651.07738,774.62736 133.30406,133.33333 0 0 1 517.77333,641.29403 133.30406,133.33333 0 0 1 651.07738,507.96071 Z m 0,66.66665 a 66.652028,66.666666 0 0 0 -66.65203,66.66667 66.652028,66.666666 0 0 0 66.65203,66.66668 66.652028,66.666666 0 0 0 66.65203,-66.66668 66.652028,66.666666 0 0 0 -66.65203,-66.66667 z"
   id="path5" />
  <path
   d="m 450.88702,241.05971 a 199.95609,200 0 0 0 -199.95608,200 199.95609,200 0 0 0 199.95608,200 199.95609,200 0 0 0 199.95609,-200 199.95609,200 0 0 0 -199.95609,-200 z m 0,66.66668 A 133.30406,133.33333 0 0 1 584.19108,441.05971 133.30406,133.33333 0 0 1 450.88702,574.39304 133.30406,133.33333 0 0 1 317.58297,441.05971 133.30406,133.33333 0 0 1 450.88702,307.72639 Z m 0,66.66665 a 66.652028,66.666666 0 0 0 -66.65203,66.66667 66.652028,66.666666 0 0 0 66.65203,66.66668 66.652028,66.666666 0 0 0 66.65204,-66.66668 66.652028,66.666666 0 0 0 -66.65204,-66.66667 z"
   id="path6" />
</g>
<path
   style="fill:#bcd35f;stroke-width:1.43541"
   d="M 102.43285,772.60766 C 90.266789,758.47642 82.443323,746.69208 73.908659,729.64217 58.792766,699.4448 53.230542,675.28224 53.317086,640.19139 c 0.0442,-17.92235 0.739035,-26.1785 3.16363,-37.59102 8.638807,-40.66263 26.204327,-72.96196 55.277314,-101.64343 34.92438,-34.45408 77.06643,-54.02839 123.87971,-57.54014 l 13.14969,-0.98644 0.86239,8.44989 c 2.48881,24.3861 5.96949,42.92207 10.07723,53.6652 0.69039,1.80558 -1.32338,2.20237 -12.47609,2.45829 -64.15534,1.47215 -119.18358,49.43039 -128.94047,112.37425 -2.63044,16.96952 -0.98696,44.01134 3.61497,59.4809 4.88106,16.40786 14.4303,34.72855 24.64778,47.28792 l 8.03679,9.87887 -22.02449,22.05893 c -12.11347,12.13242 -22.39356,22.05893 -22.84464,22.05893 -0.45109,0 -3.73971,-3.39115 -7.30805,-7.53588 z"
   id="path7" /><path
   style="fill:#bcd35f;stroke-width:1.43541"
   d="m 233.25359,838.97581 c -24.80718,-2.40464 -48.82817,-9.26732 -70.41142,-20.11622 -13.08464,-6.57705 -33.87972,-20.53166 -43.70341,-29.32733 l -7.17704,-6.42597 22.41149,-22.45175 22.41148,-22.45176 9.88517,8.05107 c 12.06015,9.82251 34.60411,21.30008 50.07655,25.49495 17.12129,4.6419 51.10226,4.66542 68.08589,0.0471 57.77185,-15.70968 97.5296,-64.41387 100.20045,-122.74791 0.75257,-16.43688 0.87443,-16.95215 3.80537,-16.08967 13.05665,3.84216 35.38427,8.02113 47.20587,8.83533 l 14.2169,0.97917 -0.96282,11.62792 c -0.52955,6.39536 -2.23155,18.00548 -3.78224,25.80027 -15.64995,78.6674 -78.17859,140.8591 -156.56876,155.72508 -18.17584,3.44688 -39.53163,4.61628 -55.69348,3.04968 z"
   id="path8" /><path
   style="fill:#bcd35f;stroke-width:1.43541"
   d="m 429.1866,638.53224 c -8.97532,-1.06571 -21.92049,-3.66157 -32.54194,-6.52556 l -11.01085,-2.96899 -1.63384,-9.49492 c -4.42089,-25.69153 -15.3984,-49.28182 -30.61435,-65.78919 l -5.76141,-6.25038 4.75653,-4.9075 4.75653,-4.90749 7.29082,6.55507 c 15.27878,13.73694 40.74865,25.59481 63.0105,29.33546 l 11.13887,1.87166 2.89983,9.38858 c 3.22871,10.45335 6.42824,28.44302 7.86611,44.22801 l 0.94796,10.40669 -8.39927,-0.21507 c -4.6196,-0.11828 -10.33707,-0.44515 -12.70549,-0.72637 z"
   id="path9" /><path
   style="fill:#bcd35f;stroke-width:1.43541"
   d="m 338.90749,539.12635 c -18.69982,-16.18459 -40.31381,-26.35583 -64.72147,-30.45704 l -10.83642,-1.82084 -2.76639,-9.4051 c -3.34617,-11.3762 -6.70638,-30.09585 -7.93645,-44.2137 l -0.90672,-10.4067 h 6.72088 c 17.23036,0 54.28912,7.86188 57.4876,12.19579 0.87694,1.18825 1.97238,5.35153 2.4343,9.25173 2.20173,18.59014 15.57892,47.45417 29.21983,63.04779 3.4238,3.91392 6.2251,7.69857 6.2251,8.41032 0,0.71176 -1.85288,3.06928 -4.11752,5.23894 l -4.11751,3.94483 z"
   id="path10" /><path
   style="fill:#bcd35f;stroke-width:1.43541"
   d="m 352.16715,527.90112 c -11.31667,-11.84137 -22.63689,-32.05736 -27.69617,-49.46066 -3.3243,-11.43522 -4.95978,-22.69883 -3.29587,-22.69883 2.28442,0 25.65177,11.30379 33.33806,16.12705 9.02949,5.66614 29.25111,21.236 32.97142,25.38671 l 2.79559,3.11901 -16.4699,16.4699 -16.4699,16.46991 z"
   id="path11" /><path
   style="fill:#bcd35f;stroke-width:1.43541"
   d="m 419.33925,569.02967 c -19.32669,-4.74835 -46.12662,-19.1165 -56.50669,-30.29473 l -3.19615,-3.44191 16.58095,-16.45034 16.58094,-16.45035 7.18615,7.89474 c 12.81398,14.07749 27.49626,37.47178 34.21475,54.51672 l 2.84025,7.20577 -3.20872,-0.10393 c -1.7648,-0.0572 -8.28596,-1.35135 -14.49148,-2.87597 z"
   id="path12" /><path
   style="fill:#bcd35f;stroke-width:1.43541"
   d="m 631.68254,838.81098 c -45.5775,-4.38046 -90.59952,-26.0673 -122.23877,-58.88167 -33.92898,-35.18917 -55.13755,-82.77125 -55.13755,-123.70279 v -13.51173 l 12.91868,-1.01061 c 10.7911,-0.84417 33.21133,-5.1651 45.35122,-8.74028 2.87313,-0.84614 3.04954,-0.23246 3.96976,13.80943 1.91271,29.1866 10.17435,52.9431 25.66521,73.80083 25.94772,34.93743 65.93039,55.28957 108.54557,55.25232 31.65465,-0.0277 62.13762,-10.91179 86.31696,-30.81996 l 7.88703,-6.49381 22.19774,22.19774 22.19775,22.19774 -3.52975,3.84782 c -5.03397,5.48762 -24.39806,19.72737 -36.19795,26.61888 -23.58792,13.7761 -52.65284,22.8246 -82.16433,25.57942 -17.3643,1.62091 -17.42767,1.62067 -35.78157,-0.14333 z"
   id="path13" /><path
   style="fill:#bcd35f;stroke-width:1.43541"
   d="m 454.32871,626.19617 c 0.022,-12.97305 3.40862,-33.05258 7.55976,-44.82206 2.00014,-5.67086 2.08529,-5.72181 13.36368,-7.99691 23.51524,-4.74354 39.75779,-12.06059 58.47631,-26.34279 l 12.05668,-9.19922 4.37788,4.37788 4.37788,4.37788 -6.83792,8.2166 c -14.55555,17.49026 -23.81889,37.07657 -28.50447,60.26956 l -2.7485,13.60469 -11.26139,3.22627 c -11.92574,3.41661 -36.97889,7.56561 -45.68384,7.56561 h -5.19856 z"
   id="path14" /><path
   style="fill:#bcd35f;stroke-width:1.43541"
   d="m 552.23416,540.08841 -4.35112,-4.35112 9.19166,-12.04677 c 14.05189,-18.41668 21.31846,-34.51957 26.10341,-57.84573 l 2.49146,-12.14565 8.24216,-2.50928 c 13.05751,-3.97528 27.96227,-6.7091 42.5204,-7.79904 l 13.46563,-1.00816 -1.01908,12.77996 c -1.08213,13.57057 -5.07426,34.15425 -8.81206,45.43547 -1.76853,5.33768 -2.9353,6.82036 -5.37337,6.82823 -15.52218,0.0501 -51.99484,15.5802 -68.60157,29.21059 l -9.5064,7.80262 z"
   id="path15" /><path
   style="fill:#bcd35f;stroke-width:1.43541"
   d="m 465.78947,570.70797 c 0,-2.37475 8.65978,-20.64825 13.9692,-29.47721 5.89138,-9.79669 17.87199,-26.10465 25.08965,-34.15193 l 4.80864,-5.36137 16.84037,16.88435 16.84036,16.88436 -6.11861,5.06775 c -16.42377,13.60303 -34.85135,23.1758 -53.9297,28.01542 -14.85299,3.76777 -17.49991,4.09124 -17.49991,2.13863 z"
   id="path16" /><path
   style="fill:#bcd35f;stroke-width:1.43541"
   d="m 528.65716,516.42021 -16.79739,-16.89868 9.62036,-8.302 c 16.59191,-14.3182 43.04012,-30.30972 57.38179,-34.69505 3.13433,-0.9584 3.22643,-0.75169 2.32134,5.21005 -3.30928,21.79779 -15.85708,48.25004 -31.72811,66.88663 l -4.0006,4.69772 z"
   id="path17" /><path
   style="fill:#bcd35f;stroke-width:1.43541"
   d="m 769.81328,758.21366 -22.53122,-21.85002 4.28302,-5.02393 c 31.90115,-37.4196 41.99881,-85.5156 27.56737,-131.30575 -17.01206,-53.97837 -67.31757,-91.83291 -123.6355,-93.03485 l -14.08258,-0.30055 1.9824,-6.45933 c 3.52043,-11.47075 7.32319,-31.96926 8.35891,-45.05815 l 1.00982,-12.76151 12.70883,0.9021 c 91.16526,6.47109 166.52878,75.72289 181.44037,166.72618 2.77841,16.95628 2.7114,46.97769 -0.14284,63.9815 -5.93091,35.33291 -24.33874,73.75308 -46.96936,98.03285 l -7.458,8.00149 z"
   id="path18" /><path
   style="fill:#bcd35f;stroke-width:1.43541"
   d="m 651.75631,427.57473 c -1.12174,-14.20856 -5.38107,-37.08409 -8.60771,-46.22939 l -2.11216,-5.98649 h 12.59136 c 66.99483,0 123.52047,-51.54202 131.1214,-119.56101 3.89112,-34.8207 -5.54748,-68.48885 -27.1303,-96.77572 l -9.36147,-12.26932 22.04353,-22.13443 22.04354,-22.13443 7.79374,8.31252 c 9.70859,10.3548 24.42752,32.65909 30.84432,46.73985 7.14581,15.68044 13.48955,36.61027 16.10881,53.14759 2.78861,17.60659 1.9868,55.0678 -1.51071,70.58195 -13.84956,61.43338 -51.33095,109.89924 -106.34621,137.51253 -23.21393,11.65156 -47.51317,18.3865 -74.09733,20.53734 l -12.37484,1.00121 z"
   id="path19" /><path
   style="fill:#bcd35f;stroke-width:1.43541"
   d="m 625.98197,438.31814 c -10.54543,-1.35327 -30.70467,-6.00244 -36.89172,-8.50804 -3.23645,-1.31069 -3.97777,-2.88288 -5.5759,-11.82551 -2.40464,-13.45555 -6.27578,-25.06101 -12.52249,-37.54172 -5.4736,-10.9361 -15.44305,-25.66114 -20.37827,-30.09905 l -3.0762,-2.76623 4.56831,-4.7133 4.56831,-4.7133 6.59122,5.43861 c 19.7601,16.30461 37.22857,24.59269 63.22127,29.99591 11.9807,2.49048 11.98388,2.49235 13.96216,8.21057 3.15666,9.12433 7.40122,31.95481 8.4771,45.59626 l 0.99056,12.55981 -7.01558,-0.18157 c -3.85856,-0.0999 -11.47201,-0.75346 -16.91877,-1.45244 z"
   id="path20" /><path
   style="fill:#bcd35f;stroke-width:1.43541"
   d="m 565.06719,419.90226 c -17.65104,-8.63176 -33.12508,-18.89312 -44.30094,-29.37745 l -8.32606,-7.81087 16.45034,-16.56269 16.45034,-16.56268 3.42123,3.19614 c 5.07066,4.73708 18.34077,25.1711 22.66109,34.89477 3.51329,7.90729 10.63423,32.94117 10.63423,37.38496 0,2.93685 -1.13172,2.593 -16.99023,-5.16218 z"
   id="path21" /><path
   style="fill:#bcd35f;stroke-width:1.43541"
   d="m 501.68754,371.51117 c -9.80404,-10.72718 -20.20391,-26.28115 -27.92079,-41.75814 -8.91558,-17.88112 -9.14448,-18.98748 -3.92836,-18.98748 7.40098,0 29.06297,7.09225 41.87867,13.7113 6.80486,3.51457 16.7702,10.01758 22.1452,14.45114 l 9.77273,8.061 -16.29169,16.33804 c -8.96043,8.98592 -16.72186,16.33804 -17.24762,16.33804 -0.52577,0 -4.30943,-3.66925 -8.40814,-8.1539 z"
   id="path22" /><path
   style="fill:#bcd35f;stroke-width:1.43541"
   d="m 543.1695,342.90145 c -4.50067,-5.42695 -21.43965,-16.97221 -33.60012,-22.90116 -12.59604,-6.14131 -31.8734,-12.08336 -39.34445,-12.12753 -2.04476,-0.0121 -4.50056,-0.51945 -5.45732,-1.12747 -3.75344,-2.38529 -9.24949,-27.69422 -10.04723,-46.26677 l -0.77273,-17.99039 13.4568,1.03791 c 15.74346,1.21428 25.32274,2.94705 39.65297,7.17273 9.62325,2.83769 10.40669,3.3633 10.40669,6.98178 0,7.94855 7.11407,31.60097 13.15068,43.72254 3.42153,6.87048 10.20366,17.52846 15.0714,23.68441 l 8.85044,11.19264 -4.67297,4.52923 c -4.31809,4.18525 -4.82648,4.34413 -6.69416,2.09208 z"
   id="path23" /><path
   style="fill:#bcd35f;stroke-width:1.43541"
   d="m 505.98086,247.27796 c -14.22365,-3.87263 -32.72736,-6.83765 -42.70335,-6.84276 l -8.97129,-0.005 v -13.69688 c 0,-23.9232 7.21083,-50.30646 21.00594,-76.85737 28.25015,-54.371944 81.10137,-93.218491 141.82888,-104.246646 17.58436,-3.193334 50.32428,-3.1411 68.26566,0.108912 36.01029,6.523127 77.39144,26.936813 98.77786,48.727986 l 5.97018,6.083168 -22.16707,22.13246 -22.16706,22.13246 -6.96547,-5.87337 c -17.70637,-14.93024 -37.94291,-24.7653 -60.61108,-29.45732 -17.75385,-3.67481 -45.25114,-2.93587 -62.45459,1.67836 -25.96437,6.96404 -53.24783,24.8768 -69.71092,45.76818 -17.34366,22.00883 -27.27335,48.30855 -29.6402,78.50488 l -1.12735,14.38281 z"
   id="path24" /><path
   style="fill:#bcd35f;stroke-width:1.43541"
   d="m 385.03118,233.68919 c -1.59469,-34.82206 -15.80143,-65.94118 -40.92291,-89.6395 -16.91225,-15.95416 -33.25855,-25.41231 -55.89537,-32.34166 -11.58284,-3.54562 -14.61103,-3.86152 -37.01673,-3.86152 -22.40569,0 -25.43388,0.3159 -37.01673,3.86152 -19.8107,6.06425 -38.62677,16.28311 -51.65527,28.05358 l -5.53059,4.99656 -22.15708,-22.12248 c -12.18639,-12.16737 -22.15707,-22.56583 -22.15707,-23.107696 0,-0.541866 4.36004,-4.62596 9.68899,-9.075765 27.35848,-22.845013 55.505,-36.465913 90.78947,-43.935603 19.42388,-4.112017 53.01153,-4.482749 72.48804,-0.800105 53.71307,10.156134 100.95574,41.132158 130.58709,85.623189 19.09285,28.66763 31.44244,65.59266 32.64492,97.60766 l 0.40436,10.76555 -7.89474,0.34725 c -16.79999,0.73895 -41.94343,5.30775 -53.2687,9.67944 -2.02019,0.77981 -2.40962,-1.2445 -3.08768,-16.05042 z"
   id="path25" /><path
   style="fill:#bcd35f;stroke-width:1.43541"
   d="m 304.53874,292.34798 -3.89309,-4.06353 4.3154,-5.43021 c 10.04762,-12.64329 15.38158,-30.73845 13.86642,-47.04107 -2.91017,-31.31217 -25.66307,-55.93455 -56.83552,-61.50538 -17.66089,-3.15618 -38.20655,2.06736 -52.22202,13.27695 l -5.54108,4.43176 -22.39058,-22.39058 -22.39058,-22.39058 3.52975,-3.77631 c 5.05093,-5.40379 25.00003,-18.38578 35.10868,-22.8472 15.6901,-6.92477 27.58952,-9.53004 47.42179,-10.38258 14.47457,-0.62222 21.44286,-0.25144 30.76194,1.63685 60.86544,12.33292 106.26604,66.49217 106.26604,126.76683 v 12.67741 l -12.74398,5.39632 c -14.58216,6.17468 -38.56591,21.34756 -50.99611,32.26175 -4.6623,4.0937 -8.9015,7.44307 -9.42044,7.44307 -0.51893,0 -2.69541,-1.82858 -4.83662,-4.0635 z"
   id="path26" /><path
   style="fill:#bcd35f;stroke-width:1.43541"
   d="M 231.81818,438.95469 C 158.79806,431.13479 95.681473,384.21332 67.948431,317.13235 44.016892,259.24651 48.581339,194.51015 80.390489,140.66986 c 7.393147,-12.51367 25.806381,-36.59513 28.725471,-37.56816 0.79003,-0.26335 11.37949,9.47981 23.53214,21.65146 l 22.09572,22.13028 -6.39939,7.31546 c -12.02747,13.74921 -22.29278,33.78354 -28.13047,54.90097 -1.93041,6.98313 -2.50318,14.55533 -2.47846,32.76616 0.0276,20.36792 0.4894,25.23841 3.29774,34.78395 11.19153,38.03986 36.73104,68.81381 71.00587,85.55884 17.57225,8.58495 30.50202,11.83864 50.63001,12.74074 l 17.31028,0.77581 -3.2269,12.08417 c -3.27534,12.26554 -5.37382,24.94823 -7.02438,42.45362 l -0.91356,9.68899 -5.98622,-0.22972 c -3.29244,-0.12634 -8.247,-0.47182 -11.01016,-0.76774 z"
   id="path27" /><path
   style="fill:#bcd35f;stroke-width:1.43541"
   d="m 252.57047,429.54545 c 1.43694,-15.77478 4.63676,-33.77257 7.85941,-44.20631 l 2.89314,-9.36689 13.13226,-2.48256 c 22.55406,-4.26368 45.6709,-15.37153 62.11656,-29.84757 l 6.86606,-6.04375 4.41863,4.41863 4.41863,4.41863 -5.78009,6.92573 c -14.99159,17.963 -24.82338,38.27906 -29.39418,60.73907 -1.52793,7.50792 -3.25926,14.14116 -3.84741,14.74053 -3.20637,3.26753 -44.65968,11.09525 -58.82021,11.10715 l -4.81076,0.004 z"
   id="path28" /><path
   style="fill:#bcd35f;stroke-width:1.43541"
   d="m 319.37799,435.57269 c 0,-3.71115 0.82143,-4.7165 5.38278,-6.58801 20.99751,-8.61527 42.94784,-22.0408 58.96342,-36.06392 l 9.08305,-7.95305 4.41512,4.41512 4.41512,4.41512 -4.03091,4.77567 c -5.99557,7.10332 -11.7623,20.29321 -13.76023,31.47299 l -1.77022,9.90554 h -31.34907 -31.34906 z"
   id="path29" /><path
   style="fill:#bcd35f;stroke-width:1.43541"
   d="m 319.87363,424.52153 c 0.379,-1.38158 1.09981,-5.09569 1.6018,-8.25359 1.45345,-9.14336 6.48019,-23.52058 12.2976,-35.17301 5.06575,-10.14681 20.45165,-31.5734 22.67208,-31.5734 0.55989,0 8.43568,7.47437 17.50175,16.60972 l 16.48376,16.60971 -7.89473,7.14374 c -11.30855,10.23281 -33.30832,24.66051 -47.84075,31.37451 -13.9948,6.46562 -15.80985,6.86513 -14.82151,3.26232 z"
   id="path30" /><path
   style="fill:#bcd35f;stroke-width:1.43541"
   d="m 375.69429,363.49429 c -8.8687,-8.89394 -16.12491,-16.58952 -16.12491,-17.10129 0,-0.51178 4.03708,-4.14087 8.97129,-8.06465 16.68491,-13.26817 37.19505,-22.73465 57.60788,-26.58899 l 11.02214,-2.08119 -0.9351,3.06565 c -2.09962,6.88344 -12.26758,26.70469 -18.87659,36.79771 -7.29996,11.14821 -22.75767,30.14354 -24.52972,30.14354 -0.55554,0 -8.26629,-7.27685 -17.13499,-16.17078 z"
   id="path31" /><path
   style="fill:#bcd35f;stroke-width:1.43541"
   d="m 351.72689,339.52822 -4.07337,-4.25168 4.96296,-5.4934 c 15.37285,-17.0159 27.32891,-42.388 31.44369,-66.72704 l 1.63502,-9.67117 9.54475,-2.83447 c 11.17233,-3.3178 31.33546,-6.7601 45.07106,-7.69463 11.25341,-0.76566 10.49101,-2.51925 8.1751,18.80362 -1.95483,17.99835 -7.93037,42.11846 -11.00986,44.44103 -1.30845,0.98684 -4.07169,1.79426 -6.14054,1.79426 -6.37109,0 -25.9282,5.69853 -36.80667,10.7247 -11.19665,5.17317 -20.39968,11.03919 -30.85264,19.6655 -3.66219,3.02223 -6.93249,5.49496 -7.26733,5.49496 -0.33484,0 -2.44181,-1.91325 -4.68217,-4.25168 z"
   id="path32" /><path
   style="fill:#bcd35f;stroke-width:1.43541"
   d="m 328.05276,315.85198 -16.39801,-16.44467 6.92803,-6.16298 c 12.94026,-11.51131 30.17427,-22.95853 46.46556,-30.86348 8.93448,-4.33525 16.54728,-7.57949 16.91734,-7.20943 1.26391,1.26391 -3.97343,23.27804 -8.03009,33.75294 -2.22702,5.7505 -6.62851,14.79357 -9.78109,20.09569 -5.57676,9.37922 -16.75704,23.2766 -18.72574,23.2766 -0.53789,0 -8.35709,-7.4001 -17.376,-16.44467 z"
   id="path33" /><path
   style="fill:#bcd35f;stroke-width:1.43541"
   d="m 264.85317,371.53765 c 0.0444,-2.58894 14.33079,-30.43473 20.3226,-39.61108 5.94493,-9.10457 22.54595,-29.48606 24.17779,-29.6837 0.40761,-0.0494 8.15881,7.3825 17.22488,16.51525 l 16.48376,16.60502 -6.20889,5.57617 c -17.12671,15.38142 -41.23182,26.6359 -65.9203,30.77765 -3.35526,0.56288 -6.09119,0.48219 -6.07984,-0.17931 z"
   id="path34" /><path
   style="fill:#bcd35f;stroke-width:1.43541"
   d="m 244.01914,372.85642 c -50.54699,-2.46027 -97.10644,-36.27604 -115.56239,-83.93206 -11.69295,-30.19295 -11.58318,-65.51094 0.29951,-96.36722 4.4698,-11.6069 18.07311,-33.38719 24.75018,-39.62755 l 3.77675,-3.52974 22.33532,22.33532 22.33532,22.33532 -5.63504,7.44518 c -28.89023,38.17058 -7.47662,95.31606 39.65602,105.82807 19.06989,4.25318 37.26897,0.83476 53.4965,-10.04846 l 9.51056,-6.3784 3.86738,4.03669 c 4.2631,4.44972 3.81956,6.8942 -2.22076,12.23953 -9.67348,8.56042 -28.21948,38.02785 -35.81799,56.9106 -3.03842,7.55068 -3.63303,8.15733 -8.4415,8.61244 -2.84505,0.26928 -8.40249,0.33241 -12.34986,0.14028 z"
   id="path35" /><path
   style="fill:#bcd35f;stroke-width:1.43541"
   d="m 584.92823,290.48607 c -15.1683,-13.67469 -41.045,-29.58376 -59.21053,-36.40279 l -6.81818,-2.55943 v -7.37853 c 0,-42.61775 19.42499,-82.58955 52.10159,-107.21211 22.99042,-17.3238 45.26308,-25.46881 73.13715,-26.74591 26.15887,-1.19851 46.32327,3.11702 68.14324,14.58385 9.93096,5.21891 29.22655,19.13099 30.07836,21.68643 0.25949,0.77846 -9.41569,11.28742 -21.50038,23.35325 l -21.97219,21.93787 -9.66389,-6.48035 c -27.3674,-18.35185 -62.93493,-15.13442 -85.83495,7.76461 -14.39376,14.39312 -20.78739,31.76297 -19.62753,53.3229 0.71872,13.35974 5.33773,25.80115 13.59524,36.61908 l 4.53898,5.94639 -4.53609,4.34104 -4.53608,4.34105 z"
   id="path36" /><path
   style="fill:#bcd35f;stroke-width:1.43541"
   d="m 644.85646,372.76023 c -2.96053,-0.24502 -5.39206,-1.21392 -5.40341,-2.15311 -0.0412,-3.41391 -14.17148,-31.02308 -21.234,-41.48928 -3.98471,-5.90509 -10.80443,-14.87232 -15.15493,-19.92717 l -7.91,-9.19067 4.44263,-4.60714 4.44263,-4.60714 5.15734,4.05727 c 31.23141,24.56972 77.60963,16.51723 99.26883,-17.23569 14.2181,-22.157 13.26339,-54.53623 -2.24449,-76.12206 l -5.3079,-7.38821 22.01409,-22.04852 C 735.035,159.92183 745.38544,150 745.92824,150 c 2.27147,0 18.86396,24.0472 24.08322,34.9034 9.1998,19.1358 12.14301,32.72591 12.18099,56.24493 0.0266,16.49028 -0.55455,22.26748 -3.23935,32.20071 -11.18239,41.37271 -40.64051,74.97424 -79.19233,90.33111 -16.20617,6.45563 -39.68959,10.33932 -54.90431,9.08008 z"
   id="path37" /><path
   style="fill:#bcd35f;stroke-width:1.43541"
   d="m 623.68421,370.27052 c -19.26129,-4.10673 -38.71383,-13.50655 -55.74084,-26.93498 l -9.09012,-7.16897 16.8864,-16.93051 c 9.28752,-9.31178 17.38553,-16.62203 17.99559,-16.245 3.22792,1.99497 21.12818,25.98603 27.75599,37.20033 6.48654,10.97529 15.11164,28.97455 15.11164,31.53569 0,1.07045 -2.26345,0.81525 -12.91866,-1.45656 z"
   id="path38" /><path
   style="fill:#bcd35f;stroke-width:1.43541"
   d="m 548.47783,323.62754 c -4.47153,-5.7148 -10.33363,-14.33778 -13.0269,-19.16216 -5.83481,-10.45175 -13.1219,-31.63524 -14.49922,-42.14906 l -0.98776,-7.54015 5.56826,2.32341 c 9.35298,3.90262 24.53105,11.80923 32.69452,17.03134 8.10901,5.18727 27.93347,20.72943 30.71323,24.07883 1.27924,1.54139 -1.92652,5.48202 -15.35768,18.87819 l -16.97439,16.93017 z"
   id="path39" /><path
   style="fill:#bcd35f;stroke-width:1.43541"
   d="m 623.58499,770.25833 c -38.4291,-8.38732 -71.98968,-34.42624 -89.93659,-69.77986 -2.80537,-5.52632 -6.33346,-13.60048 -7.84019,-17.94258 -3.31497,-9.55313 -6.88863,-32.07977 -6.90023,-43.49573 -0.008,-8.11386 0.11163,-8.36941 4.65661,-9.92703 16.07509,-5.50914 45.20753,-23.31049 59.88443,-36.59232 l 8.8282,-7.98907 4.8023,4.65457 4.80229,4.65457 -5.49705,7.26286 c -8.25529,10.90712 -11.75371,21.07997 -12.54721,36.48531 -0.82806,16.07621 2.39955,28.38101 10.89035,41.51794 20.15754,31.18763 64.52294,39.50242 95.39265,17.87813 l 7.85477,-5.50229 22.55802,22.59112 22.55802,22.59112 -11.71225,8.82543 c -14.08478,10.61321 -31.29838,19.19157 -46.7676,23.30657 -16.46273,4.37926 -44.57278,5.05234 -61.02652,1.46126 z"
   id="path40" /><path
   style="fill:#bcd35f;stroke-width:1.43541"
   d="m 520.99778,619.89272 c 3.02766,-20.38983 16.06053,-48.33267 29.89686,-64.09971 l 6.04316,-6.88641 16.50718,16.68233 16.50717,16.68232 -8.61244,7.92102 c -13.81684,12.70761 -44.05513,31.28621 -57.96147,35.61192 -3.36183,1.04573 -3.3996,0.95195 -2.38046,-5.91147 z"
   id="path41" /><path
   style="fill:#bcd35f;stroke-width:1.43541"
   d="m 575.07412,562.87372 -16.26661,-16.31289 8.23182,-6.7056 c 10.97262,-8.93823 25.0123,-17.13429 37.16799,-21.69785 10.5963,-3.97814 30.68642,-8.62249 31.92794,-7.38097 1.31472,1.31472 -11.79202,27.37048 -20.0389,39.83665 -7.74831,11.71252 -21.77509,28.57354 -23.77047,28.57354 -0.54184,0 -8.30513,-7.3408 -17.25177,-16.31288 z"
   id="path42" /><path
   style="fill:#bcd35f;stroke-width:1.43541"
   d="m 722.44297,711.61213 -22.51793,-22.61691 3.6362,-4.30622 c 1.99992,-2.36843 5.98847,-9.15072 8.86344,-15.07178 4.75869,-9.80056 5.27589,-12.07326 5.77003,-25.35468 0.44935,-12.07787 0.0129,-16.18153 -2.53572,-23.84004 -7.27957,-21.87512 -25.34941,-39.18954 -46.70219,-44.74977 -20.26142,-5.27604 -42.54704,-1.00627 -58.56523,11.22069 l -6.48993,4.95387 -4.75295,-4.9038 -4.75295,-4.9038 5.80912,-6.09161 c 13.38344,-14.0343 28.3089,-37.33064 35.84808,-55.95331 4.72866,-11.68035 6.18185,-12.20035 27.58737,-9.87168 30.37085,3.30399 56.5111,15.30773 78.19524,35.90765 32.05308,30.4504 47.33116,77.62438 38.63093,119.28026 -5.10817,24.45741 -15.53878,45.95963 -30.81616,63.52601 l -4.68942,5.39202 z"
   id="path43" /><path
   style="fill:#bcd35f;stroke-width:1.43541"
   d="m 229.89438,771.55843 c -20.91115,-3.79778 -44.89526,-14.58098 -60.87524,-27.36932 -4.93421,-3.94871 -8.97129,-7.65561 -8.97129,-8.23755 0,-0.58194 9.94358,-10.98612 22.09684,-23.12041 l 22.09684,-22.06234 5.53474,4.42666 c 25.38732,20.3047 63.95164,18.12391 88.18055,-4.98656 24.38638,-23.26066 28.0183,-60.54418 8.59374,-88.21892 l -5.65571,-8.05786 4.5765,-4.37541 4.5765,-4.37541 7.89473,7.17405 c 11.71291,10.64366 33.95532,24.9984 49.84786,32.17066 l 14.02774,6.33068 -0.11833,16.8683 c -0.14003,19.96064 -2.43965,29.84374 -11.33238,48.70306 -13.37018,28.35487 -30.97124,46.83888 -58.53507,61.47141 -18.48219,9.81148 -34.03874,13.7898 -56.33001,14.40543 -10.26316,0.28343 -21.78676,-0.0525 -25.60801,-0.74647 z"
   id="path44" /><path
   style="fill:#bcd35f;stroke-width:1.43541"
   d="m 149.45554,724.86467 c -19.75653,-24.25321 -29.59908,-51.82445 -29.59908,-82.91374 0,-16.6079 1.57907,-27.42967 6.01659,-41.23323 13.75457,-42.78559 51.12041,-77.31661 94.63844,-87.45854 13.41965,-3.12746 37.02515,-5.1638 39.4106,-3.39977 0.85188,0.62997 4.8257,8.03975 8.8307,16.46618 9.04385,19.0281 17.57551,32.31824 29.59141,46.09586 l 9.29809,10.66135 -4.34853,4.34853 -4.34854,4.34853 -7.92096,-5.54865 c -26.5378,-18.58979 -62.09316,-16.57066 -85.82583,4.87391 -17.8303,16.11124 -26.01902,43.08993 -20.04293,66.0337 2.55506,9.80953 7.72627,20.38569 13.07653,26.74411 l 3.89344,4.62709 -22.098,22.13257 c -12.1539,12.17289 -22.55477,22.13255 -23.11306,22.13255 -0.55828,0 -3.91477,-3.55971 -7.45887,-7.91045 z"
   id="path45" /><path
   style="fill:#bcd35f;stroke-width:1.43541"
   d="m 300.69667,570.43479 c -14.1007,-16.38333 -27.69682,-38.65659 -34.306,-56.20034 -1.85639,-4.92768 -0.95833,-4.98783 15.51388,-1.03902 20.14952,4.83036 46.55344,18.9348 57.50942,30.72038 l 3.5288,3.796 -16.60774,16.60774 -16.60774,16.60774 z"
   id="path46" /><path
   style="fill:#bcd35f;stroke-width:1.43541"
   d="m 368.44038,621.52255 c -18.39203,-8.62864 -36.40904,-20.51074 -50.94598,-33.59857 l -5.4721,-4.92662 16.79326,-16.83712 16.79325,-16.83712 5.78675,6.67815 c 15.15574,17.49038 25.87672,40.83949 30.25345,65.88868 1.03095,5.90041 0.0958,5.8744 -13.20863,-0.3674 z"
   id="path47" /><path
   style="fill:#bcd35f;stroke-width:1.43541"
   d="m 383.97129,490.00267 c -11.61821,-10.64795 -33.86687,-25.02326 -49.84785,-32.2077 -12.88488,-5.79256 -14.06439,-6.65935 -14.47754,-10.63918 l -0.4498,-4.33282 h 31.58194 31.58194 l 0.99295,6.81818 c 1.48318,10.18435 6.04509,21.59088 12.40536,31.01817 l 5.67429,8.41052 -3.97527,4.14929 c -2.1864,2.28211 -4.33888,4.11997 -4.78328,4.08413 -0.4444,-0.0358 -4.36063,-3.3211 -8.70274,-7.30059 z"
   id="path48" /><path
   style="fill:#bcd35f;stroke-width:1.43541"
   d="m 440.77239,571.18934 c -1.24061,-1.2406 -2.25564,-2.90312 -2.25564,-3.69449 0,-2.92737 -14.90625,-30.97936 -21.62745,-40.70059 -3.82086,-5.52632 -10.30432,-13.81346 -14.4077,-18.41587 l -7.46067,-8.36803 4.43038,-4.43039 4.43039,-4.43039 7.66128,5.27653 c 9.72061,6.69484 20.53517,10.8113 31.38112,11.94492 l 8.51131,0.88961 v 32.09217 32.09217 h -4.20369 c -2.31203,0 -5.21873,-1.01504 -6.45933,-2.25564 z"
   id="path49" /><path
   style="fill:#bcd35f;stroke-width:1.43541"
   d="m 454.30622,541.40168 v -32.04329 l 8.67907,-1.61404 c 10.34852,-1.92451 22.54563,-7.28186 29.97477,-13.16585 l 5.3929,-4.27125 4.47194,4.61387 4.47194,4.61387 -7.96828,9.32341 c -12.03047,14.07645 -21.54868,28.76451 -30.01194,46.31305 -4.19821,8.70497 -8.48558,16.36775 -9.5275,17.02839 -5.25893,3.33453 -5.4829,2.07644 -5.4829,-30.79816 z"
   id="path50" /><path
   style="fill:#bcd35f;stroke-width:1.43541"
   d="m 504.95631,492.81056 -4.39165,-4.39165 5.54865,-7.92097 c 6.46677,-9.23161 10.82328,-20.08961 12.1879,-30.37664 l 0.96816,-7.29833 h 31.39402 31.39403 v 5.02392 c 0,3.0512 -0.70455,5.03203 -1.79426,5.04456 -3.21483,0.037 -30.71342,13.88381 -40.05387,20.16902 -5.00985,3.37113 -14.00313,10.18212 -19.98507,15.13553 l -10.87626,9.00621 z"
   id="path51" /><path
   style="fill:#bcd35f;stroke-width:1.43541"
   d="m 517.79792,430.12042 c -2.07702,-12.11225 -5.56928,-20.44477 -12.20729,-29.12654 l -5.09342,-6.66162 4.82794,-4.67942 4.82793,-4.67942 8.54733,7.91332 c 4.70104,4.35232 13.27977,11.07062 19.06385,14.92956 11.2701,7.519 39.22418,22.08801 42.38107,22.08801 1.2283,0 1.91209,1.7966 1.91209,5.02392 v 5.02392 h -31.28678 -31.28677 z"
   id="path52" /><path
   style="fill:#bcd35f;stroke-width:1.43541"
   d="m 494.45929,388.95443 c -5.02385,-5.34765 -22.32653,-13.40505 -31.54063,-14.68765 l -7.89474,-1.09894 -0.38631,-31.91885 -0.38631,-31.91885 3.25712,5.8e-4 c 2.73279,4.9e-4 4.37961,2.41414 10.22988,14.99338 8.71808,18.74562 20.82015,37.54902 31.75197,49.33412 l 8.40859,9.06493 -4.97397,4.97397 -4.97397,4.97397 z"
   id="path53" /><path
   style="fill:#ff0000;stroke-width:1.43541"
   d="m 399.09531,386.89664 -4.07336,-4.25168 5.29059,-5.85605 c 11.28592,-12.49217 22.97313,-29.94533 31.12914,-46.48689 4.68076,-9.49326 8.51047,-18.09554 8.51047,-19.11617 0,-1.20805 2.00388,-1.85571 5.74163,-1.85571 h 5.74163 v 31.491 31.49099 l -6.81819,0.90798 c -11.92257,1.58771 -22.30089,5.43578 -31.75048,11.77242 -5.04894,3.38569 -9.29649,6.1558 -9.43898,6.1558 -0.14249,0 -2.09209,-1.91326 -4.33245,-4.25169 z"
   id="path54" /><path
   style="fill:#ff0000;stroke-width:1.43541"
   d="m 493.7799,387.42465 c -6.31327,-5.20333 -20.33891,-11.54292 -29.78468,-13.46268 l -8.25359,-1.67747 -0.0125,-23.94129 c -0.007,-13.16771 -0.42764,-27.39864 -0.93507,-31.62429 -0.84358,-7.02508 -0.68886,-7.63862 1.80674,-7.16475 1.81873,0.34534 5.7399,6.26092 11.75297,17.73084 10.81496,20.62951 18.61942,32.63382 29.73467,45.73584 l 8.29374,9.77619 -4.14804,4.08838 -4.14804,4.08837 z"
   id="path55" /><path
   style="fill:#ff0000;stroke-width:1.43541"
   d="m 519.83929,437.44019 c -0.379,-1.38158 -1.12441,-5.07643 -1.65647,-8.21079 -1.66802,-9.82634 -5.13611,-18.41627 -10.8153,-26.78789 l -5.48461,-8.0848 4.10318,-3.9311 4.10318,-3.9311 9.7879,8.3179 c 5.38335,4.57484 13.98647,11.03575 19.11805,14.35757 11.59749,7.50739 36.68538,20.73433 39.32737,20.73433 1.82758,0 3.66977,4.09254 3.71523,8.25358 0.0151,1.38021 -7.07979,1.79426 -30.74492,1.79426 -28.08009,0 -30.82464,-0.21918 -31.45361,-2.51196 z"
   id="path56" /><path
   style="fill:#ff0000;stroke-width:1.43541"
   d="m 505.57756,491.94094 -3.72557,-3.90266 5.69186,-8.61244 c 5.35424,-8.1016 11.35567,-23.6709 11.35567,-29.45964 0,-7.21899 -0.34414,-7.14323 32.45022,-7.14323 23.61966,0 30.70315,0.41415 30.68808,1.79425 -0.0457,4.18716 -1.89308,8.25359 -3.74951,8.25359 -4.56011,0 -36.66726,18.1052 -49.12393,27.70095 -7.38064,5.68553 -14.86878,11.4476 -16.64031,12.80459 -3.10744,2.38031 -3.35224,2.32972 -6.94651,-1.43541 z"
   id="path57" /><path
   style="fill:#ff0000;stroke-width:1.43541"
   d="m 455.24206,556.7145 c -0.51471,-8.41228 -0.93584,-22.28754 -0.93584,-30.83389 v -15.53883 l 3.94737,-0.85436 c 12.5343,-2.7129 23.9376,-6.98352 30.57636,-11.45107 4.15416,-2.79555 7.99887,-5.35836 8.54379,-5.69514 0.54493,-0.33679 2.72547,1.19829 4.84564,3.41127 l 3.85486,4.02361 -8.30028,9.92064 c -10.39324,12.42219 -20.75255,28.60699 -30.46702,47.59992 -4.13893,8.09211 -8.33616,14.71292 -9.32719,14.71292 -1.27425,0 -2.07588,-4.47855 -2.73769,-15.29507 z"
   id="path58" /><path
   style="fill:#ff0000;stroke-width:1.43541"
   d="m 444.14847,571.85961 c -2.57168,-0.94478 -4.64708,-3.64338 -6.81233,-8.85797 -5.7965,-13.95972 -20.07315,-37.58032 -30.41839,-50.32696 l -10.29455,-12.68418 3.2544,-3.46415 c 1.78992,-1.90528 3.81322,-3.46415 4.49622,-3.46415 0.68301,0 4.60749,2.2769 8.72108,5.05979 7.84098,5.30449 22.88932,10.72968 29.76187,10.72968 8.88302,0 8.57864,-1.17685 8.57864,33.16793 0,33.59968 0.2426,32.6062 -7.28694,29.84001 z"
   id="path59" /><path
   style="fill:#ff0000;stroke-width:1.43541"
   d="m 383.25359,488.50608 c -12.13952,-10.43256 -32.14433,-23.31674 -47.76874,-30.76565 -9.86651,-4.70384 -13.68626,-7.3023 -14.71606,-10.01087 -0.76494,-2.01194 -1.3908,-3.95159 -1.3908,-4.31033 0,-0.35874 13.99279,-0.47817 31.09509,-0.26541 l 31.0951,0.38685 1.80944,8.87488 c 2.09392,10.27015 6.07393,19.80854 12.3396,29.57274 l 4.42445,6.89491 -3.31148,3.52491 c -1.82131,1.9387 -3.68333,3.51916 -4.13782,3.51215 -0.45449,-0.007 -4.70194,-3.3434 -9.43878,-7.41418 z"
   id="path60" /><path
   style="fill:#0000ff;stroke-width:1.43541"
   d="m 319.39997,437.44019 c 0.0385,-4.40073 1.94814,-5.88653 17.07017,-13.28155 17.66607,-8.63911 29.93353,-16.43711 45.10542,-28.67194 l 11.24062,-9.0646 3.64611,3.64611 3.64611,3.64611 -4.50139,6.54254 c -5.61715,8.16426 -9.24754,16.58555 -11.54332,26.77663 -0.97816,4.34211 -2.08857,9.02512 -2.46757,10.4067 -0.62897,2.29278 -3.37353,2.51196 -31.45361,2.51196 -28.35098,0 -30.7628,-0.19707 -30.74254,-2.51196 z"
   id="path61" /><path
   style="fill:#0000ff;stroke-width:1.43541"
   d="m 239.71292,705.47221 c -3.1579,-0.63307 -8.76184,-2.34194 -12.4532,-3.79748 -7.13044,-2.81161 -19.84345,-11.15128 -19.84345,-13.0172 0,-0.613 20.60295,-21.70995 45.78434,-46.88212 l 45.78435,-45.76758 5.2231,7.86656 c 17.94392,27.02548 15.6745,58.25754 -5.92868,81.59156 -14.96825,16.16749 -38.17371,24.09446 -58.56646,20.00626 z"
   id="path62" /><path
   style="fill:#0000ff;stroke-width:1.43541"
   d="m 198.63294,679.30622 c -18.74808,-25.44368 -15.95871,-61.21074 6.52727,-83.69672 23.40478,-23.40478 59.93027,-25.59802 86.68841,-5.20537 l 4.76728,3.63319 -45.66796,45.68469 c -25.11738,25.12658 -46.15214,45.68469 -46.74392,45.68469 -0.59178,0 -3.09877,-2.74522 -5.57108,-6.10048 z"
   id="path63" /><path
   style="fill:#0000ff;stroke-width:1.43541"
   d="m 651.84001,640.73799 c -35.0197,-35.62094 -45.03769,-46.59874 -43.84072,-48.04101 3.22936,-3.89113 16.02149,-11.04535 24.42792,-13.66173 16.38252,-5.09881 36.60581,-2.64022 51.87166,6.30617 13.07311,7.66135 25.70726,24.51963 29.8187,39.78836 2.65625,9.86455 2.02068,26.64332 -1.38172,36.47683 -2.91665,8.42966 -9.94546,20.69008 -13.60048,23.72348 -1.48876,1.23556 -11.78636,-8.47346 -47.29536,-44.5921 z"
   id="path64" /><path
   style="fill:#0000ff;stroke-width:1.43541"
   d="m 638.77057,705.33803 c -37.86343,-7.6811 -60.95237,-46.50748 -49.57048,-83.35777 2.65787,-8.60518 9.34652,-20.5446 13.38882,-23.89941 1.33494,-1.1079 13.33978,10.29686 47.41719,45.04702 l 45.62971,46.5305 -8.95561,5.78829 c -14.55257,9.40578 -32.2709,13.06389 -47.90963,9.89137 z"
   id="path65" /><path
   style="fill:#0000ff;stroke-width:1.43541"
   d="m 635.00517,304.37673 c -8.51116,-2.34693 -18.75504,-7.47664 -24.29757,-12.16722 l -4.36347,-3.69276 46.06926,-45.93302 46.06926,-45.93301 3.55776,4.30622 c 6.07558,7.35371 12.19358,21.76691 13.26784,31.25726 2.98819,26.39853 -8.19819,50.27027 -30.16109,64.36383 -13.72096,8.80472 -34.67485,12.06373 -50.14199,7.7987 z"
   id="path66" /><path
   style="fill:#0000ff;stroke-width:1.43541"
   d="m 598.74303,279.74371 c -11.91667,-16.20043 -15.61948,-38.96846 -9.45529,-58.13912 9.73454,-30.27444 40.75419,-49.65738 71.35471,-44.58671 10.37647,1.71943 28.22229,9.70642 32.67081,14.62198 2.70553,2.98957 2.58355,3.12762 -43.34797,49.05915 l -46.06114,46.06113 z"
   id="path67" /><path
   style="fill:#0000ff;stroke-width:1.43541"
   d="m 252.5754,240.37442 -45.75667,-45.77343 3.26221,-3.47247 c 5.16851,-5.50163 20.10269,-12.23346 31.30237,-14.11008 42.18477,-7.06847 81.11067,31.90749 73.89442,73.98945 -1.99252,11.61945 -6.47371,22.16777 -12.68745,29.86508 l -4.25821,5.27489 z"
   id="path68" /><path
   style="fill:#0000ff;stroke-width:1.43541"
   d="m 234.83918,304.28023 c -30.58958,-8.5912 -51.10242,-37.4021 -48.52696,-68.15761 0.4298,-5.13256 2.17859,-13.06611 3.8862,-17.63011 3.00839,-8.04063 10.69887,-19.68983 13.63564,-20.65465 0.79294,-0.2605 21.99408,20.08625 47.11363,45.215 l 45.67192,45.68865 -7.6727,5.28439 c -4.21999,2.90641 -11.2106,6.64084 -15.53469,8.29873 -10.3407,3.9647 -28.19628,4.86996 -38.57304,1.9556 z"
   id="path69" /><path
   style="fill:#ff0000;stroke-width:1.43541"
   d="m 386.22375,433.13397 c 0.54612,-3.75 2.24395,-10.20134 3.77295,-14.3363 2.9169,-7.88833 10.89087,-20.6942 13.36605,-21.46531 0.79688,-0.24826 11.12373,9.23963 22.94856,21.0842 l 21.49968,21.53559 H 416.5209 385.2308 Z"
   id="path70" /><path
   style="fill:#ff0000;stroke-width:1.43541"
   d="m 330.50239,438.97457 c -15.70681,-0.95481 -13.65585,-3.93809 11.84211,-17.22522 16.15611,-8.41904 26.01851,-14.85499 42.30755,-27.60881 l 8.09473,-6.33794 2.93888,2.93888 2.93887,2.93887 -5.73763,9.51312 c -3.26064,5.40621 -7.10111,14.6196 -8.89596,21.34164 -1.73708,6.50569 -3.58251,12.26187 -4.10095,12.79151 -1.20891,1.23501 -36.69955,2.41926 -49.3876,1.64795 z"
   id="path71" /><path
   style="fill:#ff0000;stroke-width:1.43541"
   d="m 428.5487,416.34954 c -22.06271,-22.09887 -22.15603,-22.21969 -19.46273,-25.19575 4.22726,-4.67108 22.02969,-12.65827 32.09178,-14.39822 5.01619,-0.8674 9.3891,-1.30834 9.71758,-0.97986 0.32848,0.32848 0.42289,14.58818 0.20981,31.68821 l -0.38744,31.09098 z"
   id="path72" /><path
   style="fill:#ff0000;stroke-width:1.43541"
   d="m 454.30622,405.87856 v -30.44794 l 4.66507,0.81489 c 12.09571,2.11286 28.35712,9.51718 33.93022,15.44947 l 2.9598,3.15057 -20.77754,20.74048 -20.77755,20.74047 z"
   id="path73" /><path
   style="fill:#ff0000;stroke-width:1.43541"
   d="m 476.5099,418.46626 c 20.32918,-20.36314 21.58701,-21.36197 24.07061,-19.11435 6.61998,5.991 15.4482,27.31452 15.4482,37.3133 v 3.28694 h -30.48445 -30.48444 z"
   id="path74" /><path
   style="fill:#ff0000;stroke-width:1.43541"
   d="m 476.57297,464.39896 -21.51315,-21.57599 h 30.48444 30.48445 v 3.32799 c 0,8.43543 -7.84554,27.64817 -14.63192,35.83173 l -3.31067,3.99225 z"
   id="path75" /><path
   style="fill:#ff0000;stroke-width:1.43541"
   d="m 454.30622,476.37772 v -29.9291 l 20.8134,20.77626 c 11.44737,11.42695 20.81339,20.89109 20.81339,21.03143 0,0.14034 -3.09554,2.52751 -6.87899,5.30481 -8.06123,5.91749 -18.56915,10.31957 -28.01408,11.73592 l -6.73372,1.00978 z"
   id="path76" /><path
   style="fill:#ff0000;stroke-width:1.43541"
   d="m 434.21053,503.92396 c -7.29874,-2.03414 -19.03663,-7.90149 -24.40192,-12.19764 l -3.58851,-2.87343 22.60765,-22.65042 22.60766,-22.65041 v 31.2144 31.2144 l -5.38278,-0.12835 c -2.96052,-0.0706 -8.28947,-0.93844 -11.8421,-1.92855 z"
   id="path77" /><path
   style="fill:#ffffff;stroke-width:1.43541"
   d="m 396.81395,476.98102 c -5.50847,-8.52266 -8.73279,-17.12912 -10.78037,-28.77528 l -0.94638,-5.38277 h 31.3619 31.36189 l -21.4952,21.5311 c -11.82236,11.8421 -22.00182,21.5311 -22.62101,21.5311 -0.6192,0 -3.71557,-4.00687 -6.88083,-8.90415 z"
   id="path78" /><path
   style="fill:#ffffff;stroke-width:1.43541"
   d="m 294.25837,838.05927 c 41.61583,-8.85222 83.42697,-34.0019 110.41924,-66.4179 22.70078,-27.26219 37.09069,-57.14518 43.9142,-91.19498 l 2.60162,-12.98228 0.12099,86.48326 0.12099,86.48325 -83.61244,-0.11703 c -77.75869,-0.10881 -82.90899,-0.26665 -73.5646,-2.25432 z"
   id="path79" /><path
   style="fill:#ffffff;stroke-width:1.43541"
   d="m 387.11378,432.41627 c 1.43007,-8.1942 9.04436,-25.50123 13.72021,-31.18559 l 2.92346,-3.554 21.32702,21.11133 21.32701,21.11134 -30.30643,0.0264 -30.30644,0.0264 z"
   id="path80" /><path
   style="fill:#ffffff;stroke-width:1.43541"
   d="m 428.59429,414.9112 c -19.82061,-19.99283 -20.58578,-20.98073 -18.24969,-23.56209 5.16978,-5.71253 36.13719,-17.11613 38.9209,-14.33242 0.4374,0.4374 0.62012,13.83785 0.40603,29.77878 l -0.38923,28.9835 z"
   id="path81" /><path
   style="fill:#ffffff;stroke-width:1.43541"
   d="m 454.30622,405.84201 c 0,-33.42861 -1.14552,-31.39837 14.70341,-26.05925 9.78766,3.29722 19.50334,8.56718 23.0794,12.51868 2.17782,2.40646 1.09555,3.78437 -17.73172,22.57561 l -20.05109,20.01272 z"
   id="path82" /><path
   style="fill:#ffffff;stroke-width:1.43541"
   d="m 476.57425,419.82607 c 11.11096,-11.13842 21.03654,-19.94376 22.22635,-19.7178 4.67777,0.88833 13.85923,20.63658 16.35554,35.17881 l 0.8008,4.66507 h -29.72958 -29.72957 z"
   id="path83" /><path
   style="fill:#ffffff;stroke-width:1.43541"
   d="m 477.29129,463.67873 -20.79483,-20.85576 h 29.73024 29.73024 l -0.81489,4.66507 c -1.91527,10.96455 -8.63361,26.73978 -14.38568,33.77878 l -2.67025,3.26766 z"
   id="path84" /><path
   style="fill:#ffffff;stroke-width:1.43541"
   d="m 454.30622,476.73715 v -28.8518 l 20.14131,20.07646 20.14131,20.07647 -3.99298,3.27084 c -6.26313,5.13041 -20.48843,11.55126 -28.75375,12.97853 l -7.53589,1.3013 z"
   id="path85" /><path
   style="fill:#ffffff;stroke-width:1.43541"
   d="m 442.82297,504.54015 c -4.34211,-0.58536 -10.80144,-2.2368 -14.35407,-3.66988 -7.50668,-3.02806 -20.09569,-10.48067 -20.09569,-11.89651 0,-0.53426 9.68899,-10.64422 21.5311,-22.46658 l 21.5311,-21.49521 v 30.48445 c 0,16.76644 -0.16149,30.39975 -0.35885,30.29624 -0.19737,-0.10352 -3.91149,-0.66714 -8.25359,-1.25251 z"
   id="path86" /><path
   style="fill:#ffffff;stroke-width:1.43541"
   d="m 454.40817,763.27751 0.10195,-77.15311 2.79509,9.80331 c 20.35888,71.40541 78.73771,126.43291 150.90232,142.23953 8.05627,1.76461 0.33532,1.99048 -72.44198,2.11925 l -81.45933,0.14413 z"
   id="path87" /><path
   style="fill:#ffffff;stroke-width:1.43541"
   d="m 693.70634,838.16724 c 31.6634,-6.93541 66.87414,-24.66837 89.79343,-45.2221 l 8.38016,-7.51522 27.50035,27.50035 27.50036,27.50035 -81.09583,-0.14413 c -72.46861,-0.12879 -80.13652,-0.35425 -72.07847,-2.11925 z"
   id="path88" /><path
   style="fill:#ffffff;stroke-width:1.43541"
   d="m 821.49946,809.21053 -26.79757,-26.91388 7.72232,-8.40864 c 19.03426,-20.72591 35.70296,-52.06615 43.74182,-82.2427 l 2.61789,-9.82713 0.12957,77.15311 c 0.0713,42.43421 -0.0383,77.15311 -0.24345,77.15311 -0.20516,0 -12.43192,-12.11124 -27.17058,-26.91387 z"
   id="path89" /><path
   style="fill:#ffffff;stroke-width:1.43541"
   d="m 847.60766,598.14867 c 0,-4.03349 -8.22062,-29.30441 -12.99242,-39.93986 -24.42971,-54.44922 -74.46744,-96.62058 -132.62845,-111.7781 l -12.99157,-3.38578 80.02392,-0.11098 80.02392,-0.11098 v 78.94736 c 0,43.42106 -0.32296,78.94737 -0.7177,78.94737 -0.39474,0 -0.7177,-1.15606 -0.7177,-2.56903 z"
   id="path90" /><path
   style="fill:#ffffff;stroke-width:1.43541"
   d="m 700.47847,436.444 c 71.58463,-18.65713 125.4073,-71.70253 144.99731,-142.90333 l 3.35692,-12.20096 0.10519,79.30622 0.10517,79.30622 -80.74162,-0.0706 -80.74163,-0.0706 z"
   id="path91" /><path
   style="fill:#ffffff;stroke-width:1.43541"
   d="m 846.22847,191.98565 c -6.07569,-27.31247 -24.6018,-62.58826 -43.70837,-83.22563 l -7.85157,-8.48063 27.18727,-27.159022 27.18726,-27.159018 v 77.13894 c 0,42.42642 -0.22018,77.13894 -0.48928,77.13894 -0.26911,0 -1.3155,-3.71411 -2.32531,-8.25358 z"
   id="path92" /><path
   style="fill:#ffffff;stroke-width:1.43541"
   d="M 787.2433,93.185756 C 784.52264,90.358974 777.77512,84.652059 772.2488,80.503724 750.32516,64.046714 728.22701,53.384069 701.91388,46.566209 l -15.78948,-4.091128 81.08668,-0.06529 81.08668,-0.06529 -27.96283,27.99043 c -15.37955,15.394737 -28.00381,27.990431 -28.0539,27.990431 -0.0501,0 -2.31707,-2.312822 -5.03773,-5.139603 z"
   id="path93" /><path
   style="fill:#ffffff;stroke-width:1.43541"
   d="m 454.39258,119.49761 -0.0864,-77.153112 80.74163,0.07057 80.74162,0.07057 -13.4144,3.46603 c -37.89421,9.791144 -65.55639,25.664596 -93.61536,53.719518 -26.00905,26.005294 -42.21415,53.482554 -51.69246,87.649374 -2.58019,9.30092 -2.58857,9.08844 -2.67467,-67.82296 z"
   id="path94" /><path
   style="fill:#ffffff;stroke-width:1.43541"
   d="M 448.92244,203.75302 C 446.68348,189.68103 438.82707,166.33408 431.24409,151.21821 404.68842,98.282244 353.97087,58.193493 297.12919,45.20956 l -11.48326,-2.623036 82.89474,-0.121013 82.89474,-0.121013 V 128.4689 c 0,47.36842 -0.17735,86.1244 -0.39411,86.1244 -0.21676,0 -1.17024,-4.87813 -2.11886,-10.84028 z"
   id="path95" /><path
   style="fill:#ffffff;stroke-width:1.43541"
   d="M 81.818182,69.617225 54.57379,42.344498 135.6601,42.458612 c 73.06708,0.102829 80.16359,0.312296 71.75617,2.118018 -29.9183,6.425773 -62.97726,23.053194 -87.8127,44.166511 -5.27067,4.480747 -9.79858,8.146811 -10.06202,8.146811 -0.26344,0 -12.738952,-12.272727 -27.723368,-27.272727 z"
   id="path96" /><path
   style="fill:#ffffff;stroke-width:1.43541"
   d="M 52.46292,124.88504 52.392344,44.506928 79.876272,71.990855 107.3602,99.474782 99.198647,109.09516 C 77.989028,134.09586 64.14385,160.71598 55.900492,192.3445 l -3.366997,12.91866 z"
   id="path97" /><path
   style="fill:#ffffff;stroke-width:1.43541"
   d="m 52.487029,358.49282 0.09468,-81.45933 3.32085,12.91866 c 6.277221,24.41944 14.884037,43.60006 29.300822,65.298 10.129646,15.24559 34.536109,40.03746 49.961919,50.75087 21.01615,14.59597 48.03474,26.62321 71.23202,31.70874 7.91712,1.73567 -0.1935,1.97025 -72.54565,2.09826 l -81.45933,0.14413 z"
   id="path98" /><path
   style="fill:#ffffff;stroke-width:1.43541"
   d="m 52.457636,524.2823 -0.06529,-81.45933 80.741624,0.0706 80.74163,0.0706 -13.21097,3.4146 C 130.26708,464.57418 74.781319,519.87689 56.615973,589.95215 l -4.093046,15.78948 z"
   id="path99" /><path
   style="fill:#ffffff;stroke-width:1.43541"
   d="m 52.46292,757.89008 0.07058,-80.37812 3.366997,12.91866 c 8.130061,31.19382 21.130838,56.37207 42.126321,81.58492 l 9.368192,11.24998 -27.501327,27.50134 -27.501334,27.50134 z"
   id="path100" /><path
   style="fill:#00ffff;stroke-width:1.43541"
   d="m 82.026204,812.95919 27.471426,-27.47143 12.93607,10.6054 c 23.84439,19.54841 49.46001,32.64127 78.52324,40.13544 l 15.78947,4.07144 -81.09582,0.0653 -81.095815,0.0653 z"
   id="path101" /><path
   style="fill:#00ffff;stroke-width:1.43541"
   d="m 451.98855,289.23445 c 0,-9.86842 0.22933,-13.9055 0.50963,-8.97129 0.28029,4.93421 0.28029,13.00837 0,17.94258 -0.2803,4.93421 -0.50963,0.89713 -0.50963,-8.97129 z"
   id="path102" /><path
   style="fill:#00ffff;stroke-width:1.43541"
   d=""
   id="path104" /><path
   style="fill:#00ffff;stroke-width:1.43541"
   d="m 444.48158,297.48804 c 1.53614,-4.93421 3.67121,-13.81579 4.74459,-19.73684 l 1.95162,-10.76555 0.12881,19.73684 0.12881,19.73684 h -4.87341 -4.8734 z"
   id="path105" /><path
   style="fill:#00ffff;stroke-width:1.43541"
   d=""
   id="path106" /><path
   style="fill:#ff0000;stroke-width:1.43541"
   d="m 443.42213,303.94737 c 0.43595,-1.38158 2.05874,-7.35646 3.60621,-13.27751 l 2.81359,-10.76555 0.079,11.007 c 0.0435,6.05385 0.47111,12.02873 0.95032,13.27751 0.68172,1.77655 -0.12002,2.27051 -3.68525,2.27051 -3.68456,0 -4.40484,-0.4807 -3.7639,-2.51196 z"
   id="path107" /><path
   style="fill:#ff0000;stroke-width:1.43541"
   d="m 221.77033,836.88676 c -15.83042,-2.63117 -34.89082,-8.23656 -49.82944,-14.65412 -13.22336,-5.6807 -42.07798,-24.05105 -52.08443,-33.15966 l -6.45933,-5.87976 21.75349,-21.83705 21.7535,-21.83704 9.82545,7.44821 c 11.96068,9.06683 38.04007,22.24401 50.73454,25.63475 7.15918,1.91223 15.00805,2.48302 33.73206,2.45306 28.43314,-0.0455 39.89498,-2.48903 60.14644,-12.82258 44.13849,-22.52217 69.90981,-61.19651 74.03064,-111.09576 0.74159,-8.98002 1.65547,-16.63443 2.03082,-17.00978 0.37536,-0.37536 4.76252,0.30596 9.74925,1.51404 14.77471,3.5793 24.06896,5.18912 38.30341,6.63435 7.39594,0.75092 13.60548,1.5581 13.799,1.79375 0.1935,0.23564 -0.19993,5.5959 -0.87429,11.91169 -5.36356,50.23242 -24.43091,91.2793 -57.99141,124.83979 -28.46175,28.46175 -63.01522,46.84209 -102.59099,54.57215 -16.85944,3.29304 -50.61011,4.05668 -66.02871,1.49396 z"
   id="path108" /><path
   style="fill:#ff0000;stroke-width:1.43541"
   d="m 219.69229,768.48568 c -19.58714,-5.5809 -46.43027,-19.76915 -55.33531,-29.24813 l -3.4737,-3.69758 21.59768,-21.59768 21.59767,-21.59767 8.93649,5.77593 c 13.48448,8.71544 21.35931,10.94877 38.18105,10.82826 11.25691,-0.0806 16.13046,-0.79384 22.5869,-3.30539 26.96993,-10.4913 43.42082,-32.27448 45.21714,-59.87354 1.1069,-17.00665 -2.89045,-30.61195 -13.90097,-47.31293 l -2.90993,-4.41385 3.9516,-3.78588 3.95161,-3.78587 8.5901,7.36032 c 12.3126,10.5499 31.28959,22.70935 47.97698,30.74109 l 14.44088,6.95048 -0.0108,12.94652 c -0.0206,24.62031 -4.84807,41.55079 -18.35885,64.38677 -18.13813,30.65718 -52.07963,54.4754 -86.415,60.64119 -16.4201,2.94864 -44.48317,2.44706 -56.6235,-1.01204 z"
   id="path109" /><path
   style="fill:#ff0000;stroke-width:1.43541"
   d="M 101.08833,769.73684 C 79.399078,743.90759 62.132648,707.87455 56.551792,676.79426 c -2.970975,-16.54563 -2.613398,-59.55613 0.61778,-74.30839 8.71144,-39.77296 25.912603,-71.41271 54.026338,-99.37582 8.33412,-8.28948 20.4203,-18.81104 26.85817,-23.38126 29.69656,-21.08145 66.29198,-34.04225 100.89694,-35.73412 l 9.28595,-0.454 1.84728,15.61817 c 1.78692,15.1078 6.31302,39.39844 8.21516,44.08905 0.79727,1.96603 -0.96383,2.41573 -12.41726,3.17072 -36.59026,2.41197 -65.1871,14.85517 -89.60489,38.98936 -19.14059,18.91828 -31.99857,41.95791 -37.25628,66.75788 -2.52769,11.92276 -2.52018,42.01936 0.014,56.01597 3.63426,20.07262 12.05168,38.34966 26.3269,57.16447 l 7.97701,10.51375 -21.38833,21.42405 c -11.76358,11.78322 -21.82495,21.42404 -22.3586,21.42404 -0.53365,0 -4.36028,-4.03708 -8.50361,-8.97129 z"
   id="path110" /><path
   style="fill:#ff0000;stroke-width:1.43541"
   d="m 151.74397,726.44792 c -12.08213,-13.76079 -22.18771,-33.30656 -27.10446,-52.42424 -4.69814,-18.26769 -4.96918,-46.7176 -0.60585,-63.59305 3.73639,-14.45074 9.75743,-28.63866 16.65282,-39.24055 8.76347,-13.47413 32.54934,-36.15817 45.64674,-43.53227 19.50093,-10.97939 43.56004,-17.37073 65.38924,-17.37073 h 8.2133 l 6.39576,13.1806 c 8.69842,17.92601 19.59574,35.11148 30.72585,48.45578 l 9.29064,11.1389 -3.89737,3.73392 -3.89736,3.73392 -7.6725,-5.14248 c -12.03266,-8.06485 -24.56847,-11.87683 -39.17456,-11.91247 -20.68757,-0.0505 -34.92908,5.69746 -49.2588,19.88108 -22.85753,22.62447 -25.85548,59.26162 -7.15409,87.42796 l 5.23585,7.88575 -21.29928,21.33484 c -11.7146,11.73416 -21.72488,21.33483 -22.24507,21.33483 -0.5202,0 -2.87858,-2.20131 -5.24086,-4.89179 z"
   id="path111" /><path
   style="fill:#ff0000;stroke-width:1.43541"
   d="m 301.26396,570.13066 c -13.17038,-15.92715 -27.98186,-40.05536 -33.43162,-54.4608 -1.40226,-3.7066 -1.25446,-3.94737 2.42307,-3.94737 13.42177,0 50.3786,16.58964 63.47665,28.4942 l 7.89473,7.17536 -15.76499,15.89728 c -8.67075,8.7435 -16.09898,15.85918 -16.50718,15.81262 -0.4082,-0.0466 -4.049,-4.08364 -8.09066,-8.97129 z"
   id="path112" /><path
   style="fill:#ff0000;stroke-width:1.43541"
   d="m 336.34791,536.40309 c -19.10894,-15.79892 -37.98185,-23.88957 -69.56036,-29.8199 -2.48401,-0.46649 -3.63837,-2.69899 -6.0568,-11.71373 -2.905,-10.82845 -6.44719,-31.37373 -7.8016,-45.25048 l -0.66763,-6.84035 9.51517,0.85131 c 16.03393,1.43453 34.25897,4.79142 44.37503,8.17347 l 9.63286,3.22051 2.37519,11.48326 c 4.43931,21.46261 13.41454,40.91638 27.13791,58.8213 3.90207,5.09103 7.09466,9.81318 7.09466,10.49367 0,1.27582 -6.1563,7.54186 -7.26954,7.39912 -0.34386,-0.0441 -4.29256,-3.11227 -8.77489,-6.81818 z"
   id="path113" /><path
   style="fill:#ff0000;stroke-width:1.43541"
   d="m 350.83424,524.95308 c -7.86607,-8.80692 -16.83027,-23.76734 -22.00294,-36.72092 -4.07147,-10.19591 -8.69463,-29.42146 -7.38894,-30.72715 0.40876,-0.40876 5.69746,1.4169 11.75266,4.05702 13.18294,5.74786 36.97104,21.27227 47.90546,31.26368 l 7.89474,7.21388 -15.91217,16.00401 -15.91217,16.00402 z"
   id="path114" /><path
   style="fill:#ff0000;stroke-width:1.43541"
   d="m 434.21053,637.79045 c -8.28948,-0.57696 -22.5,-2.87413 -31.57895,-5.10483 -15.18787,-3.73167 -16.54174,-4.3395 -16.9396,-7.60517 -0.97797,-8.02723 -6.50942,-28.00882 -10.29474,-37.18831 -4.60873,-11.17628 -12.14399,-23.49201 -20.52201,-33.54144 l -5.74684,-6.89331 3.97836,-4.15251 3.97836,-4.15251 7.71719,6.28637 c 17.07984,13.91315 37.61829,23.55174 59.92271,28.12145 7.05405,1.44522 13.27813,3.35998 13.83129,4.25501 2.16584,3.50439 7.16425,27.34731 9.15894,43.68906 1.15456,9.45892 1.97947,17.2289 1.83313,17.26662 -0.14634,0.0377 -7.04837,-0.40348 -15.33784,-0.98043 z"
   id="path115" /><path
   style="fill:#ff0000;stroke-width:1.43541"
   d="m 418.42105,568.23244 c -13.08485,-3.44885 -41.49336,-18.16309 -49.9698,-25.88195 l -7.6253,-6.94379 15.79207,-15.67844 c 18.17424,-18.04347 15.70446,-17.95432 29.16571,-1.05287 9.62999,12.09107 22.53909,33.42615 26.86406,44.3987 l 2.95625,7.50007 -4.64412,-0.13043 c -2.55427,-0.0717 -8.19676,-1.06681 -12.53887,-2.21129 z"
   id="path116" /><path
   style="fill:#ff0000;stroke-width:1.43541"
   d="m 363.55964,618.14713 c -15.80663,-8.04765 -33.07751,-19.63287 -43.1021,-28.91268 l -6.97774,-6.45933 16.25585,-16.15509 16.25586,-16.15509 7.64823,9.64752 c 12.37307,15.60745 23.61508,40.41325 26.69658,58.90668 1.32198,7.93382 0.42785,7.88734 -16.77668,-0.87201 z"
   id="path117" /><path
   style="fill:#ff0000;stroke-width:1.43541"
   d="m 625.43657,837.55763 c -29.29493,-4.12266 -58.18219,-15.25119 -85.00595,-32.74767 -16.18838,-10.5593 -41.21855,-35.75327 -52.87339,-53.21942 -20.48443,-30.69831 -30.17477,-58.518 -32.60596,-93.60745 -0.94438,-13.63019 -0.9167,-13.79756 2.42951,-14.69331 1.86162,-0.49835 5.39944,-0.9149 7.86182,-0.92568 5.58951,-0.0245 27.00621,-3.6833 39.03949,-6.66951 4.98673,-1.23752 9.38066,-1.93615 9.7643,-1.55251 0.38364,0.38364 1.32932,7.06914 2.10152,14.85667 3.69284,37.24195 15.63391,63.85242 39.25043,87.46894 16.97946,16.97947 36.57587,28.42802 60.54181,35.36954 9.90188,2.868 14.41323,3.27162 35.73449,3.19707 22.3861,-0.0783 25.4618,-0.41031 37.2321,-4.01943 16.28006,-4.99196 34.95163,-14.61256 46.64098,-24.03194 l 9.10803,-7.33934 21.64227,21.64227 21.64226,21.64227 -4.25721,4.48237 c -6.80153,7.16125 -26.91883,21.12012 -41.50334,28.79811 -27.37999,14.41415 -54.07101,21.24729 -86.19887,22.06765 -11.8421,0.30239 -25.58703,-0.021 -30.54429,-0.71863 z"
   id="path118" /><path
   style="fill:#ff0000;stroke-width:1.43541"
   d="m 625.22754,770.0527 c -25.24638,-5.28026 -49.53452,-19.11252 -68.296,-38.89505 -22.45997,-23.6823 -32.72168,-46.54023 -36.42932,-81.1462 -1.89279,-17.66677 -1.82183,-17.809 11.99065,-24.02984 14.42998,-6.49896 35.08089,-19.62163 49.30043,-31.32808 l 10.50144,-8.64547 4.10735,3.93509 4.10735,3.93509 -5.63439,8.25438 c -7.87992,11.54409 -10.14063,18.70669 -11.0139,34.89539 -0.93011,17.24216 1.80237,28.86053 9.61539,40.88423 19.35576,29.78718 56.14776,39.92021 87.94968,24.22258 5.74189,-2.83423 11.75345,-6.12871 13.35901,-7.32106 2.77542,-2.06113 4.00481,-1.08059 24.96201,19.90939 l 22.04282,22.07729 -9.89024,7.36007 c -11.88683,8.84586 -35.33604,20.74043 -47.21082,23.9476 -10.08219,2.72301 -49.56581,4.01426 -59.46146,1.94459 z"
   id="path119" /><path
   style="fill:#ff0000;stroke-width:1.43541"
   d="m 723.0349,710.80704 -21.75042,-21.81182 4.43859,-6.45933 c 9.73689,-14.16977 11.87087,-20.83879 12.40129,-38.75599 0.406,-13.71451 -6e-5,-17.90319 -2.40019,-24.75893 -9.81538,-28.03672 -34.35242,-45.60094 -63.6454,-45.55896 -17.25508,0.0247 -31.33018,4.48429 -43.57571,13.80652 l -4.4156,3.3615 -3.98933,-4.16397 -3.98933,-4.16396 9.69335,-11.90893 c 12.537,-15.40253 18.20695,-24.26109 27.90561,-43.59891 l 7.91903,-15.78948 9.20352,-0.43337 c 20.33215,-0.95739 48.35536,6.79605 67.78958,18.75597 22.33247,13.74351 43.27479,37.7687 52.42571,60.14316 7.63934,18.67852 9.36339,26.86882 10.07242,47.85003 0.61528,18.20624 0.33312,21.43568 -3.00086,34.34731 -4.43273,17.16687 -13.77034,36.85823 -23.65279,49.87953 -4.00125,5.27212 -7.81592,9.91998 -8.47702,10.32857 -0.66111,0.40859 -10.98971,-9.07243 -22.95245,-21.06894 z"
   id="path120" /><path
   style="fill:#ff0000;stroke-width:1.43541"
   d="m 770.33501,757.70242 c -19.42532,-18.61273 -21.67914,-21.25213 -20.03474,-23.46222 1.01906,-1.36963 4.96698,-6.61963 8.77316,-11.66666 9.02205,-11.96332 18.659,-31.92478 22.79423,-47.21469 2.83248,-10.47301 3.28268,-15.45354 3.17891,-35.16746 -0.10897,-20.7053 -0.50691,-24.23844 -4.04172,-35.88517 -17.4603,-57.52941 -63.56925,-93.89342 -124.01001,-97.80101 -11.73235,-0.75852 -14.63432,-1.36651 -14.03067,-2.93959 3.47486,-9.05535 9.39543,-41.28523 9.44438,-51.41251 0.0446,-9.22596 0.40092,-9.39345 16.53847,-7.77394 40.37602,4.052 75.12653,18.37446 107.10732,44.14438 34.50693,27.80548 60.17964,70.84827 68.80931,115.36551 3.93933,20.32151 3.83207,56.34945 -0.22703,76.26784 -3.59276,17.62998 -11.81731,39.96241 -20.75726,56.36295 -6.94214,12.73553 -20.49367,31.56162 -27.5147,38.22406 l -4.14207,3.93052 z"
   id="path121" /><path
   style="fill:#ff0000;stroke-width:1.43541"
   d=""
   id="path122" /><path
   style="fill:#ff0000;stroke-width:1.43541"
   d="m 521.77033,620.763 c 0,-6.64282 7.8859,-29.10203 14.72803,-41.94578 3.2625,-6.12422 9.12138,-15.07686 13.01973,-19.89477 l 7.08791,-8.75983 15.95537,16.03221 15.95538,16.0322 -7.53761,7.00175 C 568.1993,601.10008 537.2129,620.519 525,624.31044 c -2.88091,0.89437 -3.22967,0.5113 -3.22967,-3.54744 z"
   id="path123" /><path
   style="fill:#ff0000;stroke-width:1.43541"
   d="m 454.95517,625.51136 c 1.05712,-14.89958 5.50632,-39.64092 8.18632,-45.52289 1.30836,-2.87153 3.5207,-3.95877 11.81784,-5.8078 24.55584,-5.47233 39.83204,-12.3266 59.01196,-26.47805 l 11.48326,-8.47265 3.93406,3.72694 3.93406,3.72694 -3.59085,4.40927 c -15.23276,18.70461 -24.123,36.37349 -29.96715,59.55811 l -4.50902,17.88795 -10.02017,2.57235 c -11.25638,2.88971 -30.19241,6.22515 -42.84883,7.5475 l -8.42676,0.88044 z"
   id="path124" /><path
   style="fill:#ff0000;stroke-width:1.43541"
   d="m 575.81204,562.17634 -15.52657,-15.57486 6.84886,-5.85422 c 8.11924,-6.94012 24.48683,-16.52012 36.54903,-21.39226 9.77468,-3.94816 29.56982,-8.58985 30.91139,-7.24829 1.21321,1.21322 -12.66781,28.36024 -20.38858,39.8738 -6.51604,9.71702 -20.14688,25.77069 -21.88135,25.77069 -0.54242,0 -7.97317,-7.00869 -16.51278,-15.57486 z"
   id="path125" /><path
   style="fill:#ff0000;stroke-width:1.43541"
   d="m 552.92584,539.25838 -3.64802,-3.85168 8.4818,-11.48326 c 11.99336,-16.23744 19.35787,-31.87738 24.38694,-51.7903 2.36918,-9.38091 4.77168,-17.46688 5.33889,-17.96883 3.15851,-2.7951 33.45534,-8.80364 52.95765,-10.50268 l 8.86415,-0.77225 -0.73959,8.22038 c -1.11196,12.35919 -4.61934,33.05738 -7.10898,41.95244 -3.14723,11.24453 -5.48201,14.35407 -10.77765,14.35407 -12.07851,0 -48.72084,16.23624 -65.27218,28.92215 l -8.83499,6.77165 z"
   id="path126" /><path
   style="fill:#ff0000;stroke-width:1.43541"
   d="m 529.12869,515.53529 -16.32586,-16.41475 11.30193,-9.00833 c 17.91152,-14.27657 41.94891,-28.76051 53.47394,-32.22118 3.34153,-1.00338 3.39435,-0.88121 2.42209,5.60229 -2.75418,18.36615 -17.04113,48.27256 -30.44319,63.72572 l -4.10305,4.731 z"
   id="path127" /><path
   style="fill:#ff0000;stroke-width:1.43541"
   d="m 467.22488,569.11007 c 0,-2.54274 13.07071,-27.6183 18.78155,-36.03154 3.01274,-4.43838 9.45666,-13.07688 14.31983,-19.19667 l 8.84212,-11.12688 16.40929,16.32586 16.40928,16.32586 -5.44324,4.70621 c -13.38398,11.57178 -33.44826,21.98237 -53.52479,27.77197 -10.40815,3.00147 -15.79404,3.41927 -15.79404,1.22519 z"
   id="path128" /><path
   style="fill:#ff0000;stroke-width:1.43541"
   d="m 653.27659,437.71544 c -0.48633,-1.26736 -0.88425,-4.75425 -0.88425,-7.74864 0,-7.43741 -5.48093,-39.15406 -8.00002,-46.29391 -1.1263,-3.19229 -2.04782,-6.36889 -2.04782,-7.05911 0,-0.69021 6.09413,-1.25493 13.54252,-1.25493 49.64462,0 95.22114,-29.80374 117.15601,-76.61153 9.8838,-21.09146 11.937,-31.10894 11.95269,-58.3167 0.0125,-21.68672 -0.31341,-24.74812 -3.86432,-36.29902 -5.0347,-16.37754 -12.12799,-30.43476 -22.86287,-45.3088 l -8.65384,-11.9906 21.3649,-21.45673 21.36491,-21.45673 7.37242,7.86018 c 21.4501,22.8692 38.97819,58.98989 45.61567,94.00166 2.96336,15.6313 3.05522,54.22095 0.16833,70.70604 -5.90121,33.69769 -23.02815,68.60655 -47.22709,96.26021 -30.30085,34.6267 -80.95931,60.94231 -125.06809,64.96926 -5.52631,0.50453 -12.07218,1.22925 -14.54637,1.6105 -3.25574,0.50166 -4.74282,0.0566 -5.38278,-1.61115 z"
   id="path129" /><path
   style="fill:#ff0000;stroke-width:1.43541"
   d="m 635.16746,438.47481 c -7.5,-0.58287 -20.92923,-2.81227 -29.84273,-4.95423 -18.35747,-4.41138 -19.11805,-5.05433 -21.82769,-18.45185 -4.13658,-20.45293 -13.23566,-40.41303 -26.39215,-57.89489 l -7.74425,-10.29028 3.78858,-3.58554 3.78858,-3.58555 11.46309,8.59135 c 15.73986,11.79669 31.28498,19.08851 52.06524,24.42247 l 17.59531,4.51643 2.72755,8.83076 c 3.0412,9.84626 10.04956,54.50159 8.42313,53.66988 -0.22456,-0.11483 -6.54466,-0.68568 -14.04466,-1.26855 z"
   id="path130" /><path
   style="fill:#ff0000;stroke-width:1.43541"
   d="m 562.45592,417.68671 c -16.91047,-8.74959 -34.40462,-20.77192 -42.92898,-29.50166 l -5.55888,-5.69281 15.66326,-15.71197 c 17.53669,-17.59124 16.12656,-17.30722 25.12041,-5.05948 12.55878,17.10243 19.80817,33.1647 25.10465,55.62371 1.66779,7.07206 1.65608,8.25359 -0.0818,8.25359 -1.11553,0 -8.90893,-3.56012 -17.31867,-7.91138 z"
   id="path131" /><path
   style="fill:#ff0000;stroke-width:1.43541"
   d="m 501.94094,370.35304 c -3.95933,-4.33215 -10.20669,-12.40116 -13.88301,-17.93114 -9.36019,-14.07973 -21.24859,-37.06767 -20.36315,-39.37508 2.02302,-5.27191 37.17785,7.1789 55.78019,19.75571 6.56245,4.43679 13.5003,9.40304 15.41744,11.03611 l 3.48571,2.96921 -15.66219,15.71091 c -8.6142,8.641 -16.09284,15.71091 -16.61919,15.71091 -0.52635,0 -4.19646,-3.54449 -8.1558,-7.87663 z"
   id="path132" /><path
   style="fill:#ff0000;stroke-width:1.43541"
   d="m 537.55981,337.12008 c -17.77513,-14.21337 -39.60948,-24.45691 -61.27521,-28.74716 -13.29727,-2.63313 -13.06683,-2.36944 -16.93823,-19.38214 -2.24536,-9.8671 -5.56556,-44.207 -4.38807,-45.38448 1.25671,-1.25671 32.21669,2.64616 43.12792,5.43679 17.29256,4.42269 18.5119,5.28492 19.55753,13.82972 2.63141,21.50372 15.15701,47.59777 34.41358,71.6924 0.77095,0.96464 -0.24271,2.93372 -2.68167,5.20926 l -3.92111,3.6584 z"
   id="path133" /><path
   style="fill:#ff0000;stroke-width:1.43541"
   d="m 506.69856,246.66214 c -13.56105,-3.55881 -31.59356,-6.22235 -42.1571,-6.22694 L 453.9633,240.43062 454.96551,225 c 1.29373,-19.9191 4.11471,-33.68492 10.36889,-50.59809 23.80856,-64.3854 78.15983,-111.444368 146.98838,-127.266964 14.95216,-3.437263 62.08438,-3.419372 77.26832,0.02933 34.84422,7.914122 73.58279,27.409714 92.33112,46.466613 l 6.80261,6.914571 -21.41576,21.38007 c -19.8705,19.83736 -21.61532,21.23319 -24.18122,19.34449 -1.52099,-1.11956 -6.89484,-5.14676 -11.94187,-8.94933 -11.26293,-8.4858 -28.77254,-17.03591 -43.8055,-21.39067 -9.85129,-2.85372 -14.53198,-3.27452 -36.42354,-3.27452 -28.63826,0 -36.14775,1.44614 -55.55847,10.69912 -41.14429,19.61328 -67.56881,53.03457 -76.65851,96.95638 -1.47044,7.10527 -2.75845,15.82536 -2.86223,19.378 -0.10377,3.55263 -0.59671,8.12371 -1.09541,10.15797 -0.90496,3.69143 -0.92069,3.69496 -8.08376,1.81517 z"
   id="path134" /><path
   style="fill:#ff0000;stroke-width:1.43541"
   d="m 584.18819,288.94345 c -15.95277,-13.66893 -40.44939,-28.63724 -57.08195,-34.87909 -3.77578,-1.41697 -7.18244,-3.08984 -7.57035,-3.7175 -1.53864,-2.48956 2.47772,-33.40109 5.85333,-45.0496 13.55165,-46.76391 52.73017,-82.9984 99.49782,-92.02115 13.93149,-2.68776 40.69316,-2.59447 54.16797,0.18883 19.12394,3.95016 41.74102,15.30742 58.02633,29.13817 l 5.02392,4.2667 -21.76643,21.93327 -21.76645,21.93327 -5.53838,-3.66512 c -14.95633,-9.89764 -27.4819,-14.08084 -42.07706,-14.0526 -17.79424,0.0344 -32.27633,5.59701 -45.11094,17.32712 -16.804,15.35791 -23.12704,31.09811 -22.06702,54.93235 0.70271,15.80017 3.54051,24.28226 12.4625,37.24993 l 4.33662,6.30306 -3.8999,3.73635 -3.8999,3.73633 z"
   id="path135" /><path
   style="fill:#ff0000;stroke-width:1.43541"
   d="m 641.50306,371.50079 c -0.85752,-0.64122 -2.30807,-3.35349 -3.22344,-6.02727 -4.82155,-14.08372 -20.95876,-39.92157 -38.2668,-61.27035 l -3.57472,-4.40927 3.93406,-3.75717 3.93406,-3.75718 8.36276,5.63053 c 26.34948,17.74072 62.66785,14.66708 85.51343,-7.23705 13.80774,-13.23874 20.24335,-28.33256 20.36482,-47.76286 0.11211,-17.93293 -4.05833,-31.64445 -13.51545,-44.43589 l -3.00047,-4.05835 21.45444,-21.49026 c 11.79994,-11.81965 21.95026,-21.49026 22.55626,-21.49026 2.37673,0 15.8963,20.12183 22.66408,33.73205 10.48035,21.07633 12.08206,28.56824 12.12175,56.69857 0.0387,27.46373 -1.89151,35.88749 -13.29687,58.02888 -22.09147,42.88641 -62.51963,69.17461 -110.68342,71.97128 -7.58194,0.44025 -14.48696,0.27581 -15.34449,-0.3654 z"
   id="path136" /><path
   style="fill:#ff0000;stroke-width:1.43541"
   d="m 618.55482,368.23196 c -17.44856,-4.57569 -36.82978,-14.61979 -52.05933,-26.97915 l -6.23179,-5.05733 15.53745,-15.58578 c 8.5456,-8.57218 16.29573,-15.58578 17.22253,-15.58578 4.13674,0 25.72988,30.4185 35.73569,50.34126 3.52445,7.0176 6.40809,13.41811 6.40809,14.22336 0,2.09871 -4.99057,1.69118 -16.61264,-1.35658 z"
   id="path137" /><path
   style="fill:#ff0000;stroke-width:1.43541"
   d="m 551.56539,326.32748 c -12.96046,-15.9552 -23.51443,-36.91393 -28.07513,-55.75332 -2.06613,-8.53481 -2.91394,-14.35406 -2.09124,-14.35406 2.50266,0 26.83129,12.64625 36.60077,19.02542 14.36641,9.38082 29.79925,22.05495 29.79925,24.47244 0,0.97152 -7.0136,8.75826 -15.58577,17.30386 l -15.58578,15.53745 z"
   id="path138" /><path
   style="fill:#ff0000;stroke-width:1.43541"
   d="m 352.4609,338.82895 -3.30269,-3.51554 7.19222,-9.04427 c 13.44552,-16.90786 23.0145,-37.73777 27.56372,-60.0012 l 2.4931,-12.20095 11.05811,-3.18412 c 10.8276,-3.11775 38.40678,-7.58143 46.84237,-7.58143 4.18582,0 4.25686,0.12753 4.25686,7.64179 0,10.04006 -3.82969,32.15398 -7.74992,44.75055 l -3.12702,10.04785 -9.27445,1.82477 c -23.83958,4.6905 -42.77274,13.05915 -61.10944,27.01099 -5.61452,4.27191 -10.5079,7.76711 -10.87419,7.76711 -0.3663,0 -2.1522,-1.582 -3.96867,-3.51555 z"
   id="path139" /><path
   style="fill:#ff0000;stroke-width:1.43541"
   d="m 386.29303,241.56868 c -0.42404,-4.17857 -1.13629,-11.94169 -1.58276,-17.25139 -1.02739,-12.21851 -6.62054,-31.63831 -12.43177,-43.16406 -16.84998,-33.41949 -44.13039,-56.6014 -81.60864,-69.34808 -11.85051,-4.03046 -13.00493,-4.14763 -40.19139,-4.07921 l -27.99043,0.0704 -12.91866,4.73518 c -17.25005,6.32281 -29.39311,12.81738 -42.17113,22.55473 l -10.59218,8.07165 -21.70447,-21.79591 -21.70447,-21.79592 7.17703,-6.426307 c 17.81544,-15.951922 41.79619,-29.840636 66.17662,-38.326906 23.9824,-8.347726 35.39668,-10.161939 64.44539,-10.2431 27.70684,-0.07741 37.82405,1.367972 60.28708,8.612845 75.64169,24.396279 130.54117,93.719908 136.47567,172.332928 l 0.96852,12.82976 -19.91827,2.4239 c -16.99737,2.06845 -28.5295,4.30355 -39.54413,7.66427 -1.97509,0.60263 -2.53776,-0.61508 -3.17201,-6.86482 z"
   id="path140" /><path
   style="fill:#ff0000;stroke-width:1.43541"
   d="m 305.22626,291.60294 -3.16889,-3.37313 4.96107,-7.37212 c 9.17358,-13.63189 11.58889,-21.94985 11.53057,-39.70936 -0.0424,-12.91703 -0.64086,-17.2844 -3.28953,-24.00685 -6.96909,-17.68781 -21.02477,-31.84433 -39.23635,-39.51782 -7.78922,-3.282 -11.11922,-3.81704 -24.10925,-3.87371 -17.57754,-0.0767 -25.22588,2.06742 -38.89876,10.90462 l -8.93649,5.77593 -21.59767,-21.59767 -21.59768,-21.59768 3.36227,-3.57897 c 4.4164,-4.70104 20.15506,-15.16298 30.96976,-20.58649 17.00851,-8.52967 26.64558,-10.66425 51.71775,-11.45527 20.45507,-0.64535 24.34873,-0.37883 35.07153,2.40065 53.92954,13.9792 93.46859,59.22173 99.00827,113.29013 2.42156,23.63488 2.58458,22.83031 -5.29516,26.13334 -18.70049,7.83888 -40.68069,21.22082 -56.82409,34.59551 -4.6085,3.81811 -8.85595,6.94203 -9.43877,6.94203 -0.58282,0 -2.48568,-1.51792 -4.22858,-3.37314 z"
   id="path141" /><path
   style="fill:#ff0000;stroke-width:1.43541"
   d="m 376.13521,362.49903 -15.68186,-15.73064 2.78069,-3.07263 c 4.70287,-5.19661 25.35158,-18.22435 36.20663,-22.84359 10.8714,-4.62619 34.49589,-10.83906 35.8951,-9.43984 1.57118,1.57117 -15.45475,33.52173 -24.23566,45.48021 -8.76801,11.94091 -16.89881,21.33713 -18.46359,21.33713 -0.4507,0 -7.87629,-7.07879 -16.50131,-15.73064 z"
   id="path142" /><path
   style="fill:#ff0000;stroke-width:1.43541"
   d="m 320.8134,423.67459 c 0,-4.38879 5.85621,-24.34045 10.00849,-34.09817 4.68762,-11.01575 17.69109,-31.65657 22.93028,-36.39798 l 3.08121,-2.78845 16.08092,16.16089 16.08092,16.16089 -7.17704,6.60492 c -9.39243,8.64372 -34.10174,24.91588 -47.46238,31.25605 -11.64362,5.52537 -13.5424,5.96029 -13.5424,3.10185 z"
   id="path143" /><path
   style="fill:#ff0000;stroke-width:1.43541"
   d="m 252.58617,434.62219 c 3.77215,-28.35498 5.4644,-38.41102 7.89186,-46.89669 1.55482,-5.43518 3.09421,-10.14941 3.42087,-10.47607 0.32665,-0.32666 7.59639,-2.17619 16.15498,-4.11007 19.05801,-4.30632 40.03693,-14.17108 54.94673,-25.8372 l 10.48875,-8.20688 3.65271,3.65271 3.65271,3.65271 -8.81731,11.70145 c -11.5816,15.36995 -19.75004,32.81473 -24.65781,52.66003 -2.19314,8.8683 -4.3753,16.75161 -4.84925,17.51848 -1.54914,2.50655 -29.05577,7.96196 -55.04606,10.91732 l -7.56129,0.85979 z"
   id="path144" /><path
   style="fill:#ff0000;stroke-width:1.43541"
   d="M 212.44019,434.99255 C 119.89856,415.437 53.826813,334.98082 53.841985,241.86603 c 0.0049,-29.84091 5.902652,-57.03472 17.970475,-82.85916 7.117098,-15.23017 21.342703,-37.2391 31.3357,-48.48055 l 6.37996,-7.17704 21.89103,21.71397 21.89103,21.71397 -8.21854,10.50365 c -8.65979,11.06759 -18.62606,30.20379 -23.86816,45.82918 -2.54405,7.58315 -3.25911,13.76481 -3.81894,33.01435 -0.79714,27.40948 0.83339,37.89134 8.73862,56.17601 14.13774,32.70037 35.10174,54.97672 66.04609,70.18055 17.95705,8.82281 27.07703,11.21368 48.66805,12.75871 9.31362,0.66647 17.18176,1.45968 17.48476,1.76268 0.303,0.303 -0.61006,4.74019 -2.02904,9.86041 -2.85844,10.31437 -7.26996,38.55089 -7.26996,46.5323 v 5.12169 l -10.4067,-0.0938 c -5.72368,-0.0516 -17.51196,-1.59527 -26.19617,-3.43038 z"
   id="path145" /><path
   style="fill:#ff0000;stroke-width:1.43541"
   d="m 266.26794,370.11039 c 0,-1.73986 14.39019,-29.39588 19.18655,-36.87398 5.68792,-8.86813 22.2693,-29.64789 23.65779,-29.64789 0.54149,0 8.04136,7.07878 16.66639,15.73063 l 15.68186,15.73064 -2.78768,3.09991 c -4.49191,4.99501 -19.19521,14.93371 -30.36426,20.52473 -15.29171,7.65474 -42.04065,14.93103 -42.04065,11.43596 z"
   id="path146" /><path
   style="fill:#ff0000;stroke-width:1.43541"
   d=""
   id="path147" /><path
   style="fill:#ff0000;stroke-width:1.43541"
   d="m 229.43766,370.3644 c -44.79657,-8.12878 -83.26394,-39.42062 -100.00731,-81.35238 -6.15635,-15.41781 -8.47447,-28.75949 -8.44106,-48.5814 0.0383,-22.71011 4.22016,-40.12195 14.16744,-58.98806 6.48534,-12.30017 18.19696,-28.53345 21.31607,-29.54585 0.79688,-0.25866 11.05128,9.14817 22.78756,20.90405 l 21.33869,21.37432 -4.58633,6.66601 c -8.94611,13.00273 -12.09265,21.93627 -12.73348,36.15248 -1.2523,27.78078 12.10463,52.07479 35.2259,64.07001 13.19354,6.84476 22.49923,8.79574 37.79402,7.92366 13.25068,-0.75551 24.30531,-4.71261 36.70635,-13.13933 l 5.43018,-3.68991 3.29412,3.09465 c 1.81177,1.70206 3.29411,3.69458 3.29411,4.4278 0,0.73323 -2.92774,4.5895 -6.50608,8.56948 -9.466,10.52848 -21.43813,29.10265 -30.23113,46.90213 -4.22939,8.56148 -8.72742,15.9645 -9.99561,16.45116 -3.64179,1.39749 -17.63636,0.79663 -28.85344,-1.23882 z"
   id="path148" /><path
   style="fill:#f9f9f9;stroke-width:1.43541"
   d="m 328.68976,315.00376 -15.7711,-15.86973 6.45933,-5.66185 c 10.92155,-9.57314 30.13622,-22.17258 45.72474,-29.98261 8.17493,-4.09573 15.24206,-7.06822 15.70474,-6.60554 1.9992,1.9992 -6.24124,29.3652 -12.73896,42.30535 -6.36571,12.67723 -18.73342,30.10189 -22.15387,31.2122 -0.79958,0.25955 -8.55078,-6.66947 -17.22488,-15.39782 z"
   id="path149" /><path
   style="fill:#f9f9f9;stroke-width:1.43541"
   d="m 100.83732,842.22551 c 27.03947,-0.21844 71.28589,-0.21844 98.32536,0 27.03947,0.21845 4.91627,0.39717 -49.16268,0.39717 -54.078947,0 -76.202153,-0.17872 -49.16268,-0.39717 z"
   id="path150" /><path
   style="fill:#ff0000;stroke-width:1.43541"
   d="m 82.521334,814.04005 c 14.597261,-14.69571 26.869986,-26.70984 27.272726,-26.69806 0.40274,0.0118 5.87248,4.14313 12.15497,9.18076 22.93833,18.39318 46.46541,30.90967 72.78939,38.72423 l 11.96014,3.55049 -33.85738,0.0989 c -18.62156,0.0544 -52.53304,0.49584 -75.358847,0.98103 l -41.501472,0.88215 z"
   id="path151" /><path
   style="fill:#ff0000;stroke-width:1.43541"
   d=""
   id="path152" /><path
   style="fill:#f4eed7;stroke-width:1.43541"
   d="m 329.93775,314.64989 -15.58368,-15.49364 5.74162,-5.1651 c 12.0082,-10.80243 58.04845,-38.43211 60.2174,-36.13768 0.9056,0.958 -4.71563,20.96457 -8.67932,30.89064 -4.79439,12.00635 -13.54245,26.84475 -20.73954,35.17827 l -5.37279,6.22116 z"
   id="path153" /><path
   style="fill:#ff0000;stroke-width:1.43541"
   d="m 83.737859,814.11886 25.837261,-25.83726 15.54737,11.49406 c 24.67574,18.24259 37.6934,25.3275 61.48038,33.46091 l 11.48325,3.92643 -32.29665,0.89793 c -17.76315,0.49387 -49.3049,1.12232 -70.092759,1.39656 l -37.796112,0.49863 z"
   id="path154" /><path
   style="fill:#ffffff;stroke-width:1.43541"
   d="m 330.60675,314.00567 -15.29814,-15.44108 7.41747,-5.96013 c 15.18066,-12.19807 54.21775,-35.27786 56.24313,-33.25247 1.515,1.51499 -4.94818,22.6124 -10.7458,35.07696 -4.85156,10.43057 -12.39823,22.58326 -19.73354,31.77767 l -2.58497,3.24012 z"
   id="path155" /><path
   style="fill:#ffffff;stroke-width:1.43541"
   d="m 83.682287,814.17443 25.855733,-25.85573 15.56592,11.43248 c 25.22433,18.52618 37.84254,25.39663 61.49893,33.48539 l 11.48325,3.92643 -32.29665,0.89292 c -17.76315,0.4911 -49.32156,1.13621 -70.129783,1.43358 l -37.833136,0.54067 z"
   id="path156" /><path
   style="fill:#ffffff;stroke-width:1.43541"
   d="m 267.70335,368.66466 c 0,-1.73338 15.80182,-30.84367 20.41808,-37.61441 6.20648,-9.10316 19.88556,-26.02633 21.03719,-26.02633 0.51729,0 7.71128,6.82681 15.98664,15.17069 l 15.04613,15.17069 -5.91797,5.28386 c -9.645,8.61154 -28.38455,19.04796 -43.29662,24.11272 -12.97233,4.40595 -23.27345,6.13337 -23.27345,3.90278 z"
   id="path157" /><path
   style="fill:#ffffff;stroke-width:1.43541"
   d="m 301.97321,569.49225 c -14.92639,-18.54376 -35.56696,-53.07434 -33.61395,-56.23437 0.39931,-0.64611 3.51257,-0.65416 6.91834,-0.0179 15.84379,2.95994 46.36021,17.63432 57.73675,27.76379 l 7.17704,6.3903 -15.04613,15.17856 c -8.27536,8.3482 -15.38063,15.17614 -15.78947,15.1732 -0.40884,-0.003 -3.731,-3.71706 -7.38258,-8.25359 z"
   id="path158" /><path
   style="fill:#ffffff;stroke-width:1.43541"
   d="M 363.15085,616.82072 C 347.15137,608.43724 332.24391,598.4661 322.39903,589.5631 l -7.5061,-6.78798 15.65823,-15.54501 15.65822,-15.54501 7.33033,9.88808 c 12.44691,16.78995 23.10566,40.1548 25.55131,56.01055 1.20992,7.84416 0.41344,7.80603 -15.94017,-0.76301 z"
   id="path159" /><path
   style="fill:#ffffff;stroke-width:1.43541"
   d="m 523.20574,619.36895 c 0,-11.54959 14.60178,-44.02743 26.69952,-59.3861 l 6.64661,-8.43821 15.26474,15.34451 15.26473,15.34451 -7.17703,6.57321 c -11.69692,10.71282 -43.88671,31.24597 -53.4689,34.10662 -2.86845,0.85634 -3.22967,0.45991 -3.22967,-3.54454 z"
   id="path160" /><path
   style="fill:#ffffff;stroke-width:1.43541"
   d="m 576.61545,561.54471 -14.72081,-14.77109 3.98091,-3.74186 c 10.71208,-10.06884 33.77416,-22.27283 51.04112,-27.00996 18.49375,-5.07368 18.63287,-4.86223 8.97563,13.64327 -4.53193,8.68421 -11.00811,19.66507 -14.39151,24.40192 -7.02282,9.83209 -17.72928,22.2488 -19.18431,22.2488 -0.53912,0 -7.60458,-6.64699 -15.70103,-14.77108 z"
   id="path161" /><path
   style="fill:#ffffff;stroke-width:1.43541"
   d="m 617.94258,367.38987 c -11.03506,-2.84925 -37.83101,-16.53548 -47.9025,-24.46654 l -8.42881,-6.6375 14.8625,-14.91325 c 8.17437,-8.20229 15.66643,-14.91325 16.64902,-14.91325 4.82741,0 35.94489,46.80364 39.84339,59.92823 0.83888,2.82413 0.45154,3.2178 -3.08476,3.1352 -2.22426,-0.052 -7.59673,-1.01176 -11.93884,-2.13289 z"
   id="path162" /><path
   style="fill:#ffffff;stroke-width:1.43541"
   d="m 549.88191,322.78143 c -9.04374,-11.45579 -21.72061,-37.41711 -25.37092,-51.95782 -1.65018,-6.57333 -2.67259,-12.27923 -2.27204,-12.67979 1.57784,-1.57783 33.71682,16.32629 46.74109,26.03874 16.57058,12.357 18.08719,14.00274 16.14519,17.51994 -0.79068,1.43205 -7.54698,8.6568 -15.01399,16.05501 l -13.57638,13.45129 z"
   id="path163" /><path
   style="fill:#ffffff;stroke-width:1.43541"
   d=""
   id="path164" /><path
   style="fill:#ffffff;stroke-width:1.43541"
   d="m 289.95215,438.98095 c 1.57895,-0.351 7.85968,-1.89091 13.95719,-3.42201 13.6273,-3.42186 12.59784,-3.48761 12.59784,0.8047 v 3.58851 l -14.71292,-0.16651 c -8.09211,-0.0916 -13.42105,-0.45369 -11.84211,-0.80469 z"
   id="path165" /><path
   style="fill:#ffffff;stroke-width:1.43541"
   d=""
   id="path166" /><path
   style="fill:#ffffff;stroke-width:1.43541"
   d=""
   id="path167" /><path
   style="fill:#ffffff;stroke-width:1.43541"
   d="m 300.7177,446.2932 -12.20095,-3.29625 13.99521,-0.087 c 13.99449,-0.087 13.99522,-0.0868 13.99522,3.50152 0,4.18753 0.15255,4.18867 -15.78948,-0.11828 z"
   id="path168" /><path
   style="fill:#ffffff;stroke-width:1.43541"
   d=""
   id="path169" /><path
   style="fill:#ffffff;stroke-width:1.43541"
   d="m 584.92823,447.09366 v -4.27069 l 13.99521,0.123 13.99522,0.123 -10.04785,2.62272 c -5.52631,1.44249 -11.82416,3.30895 -13.99521,4.14769 -3.76343,1.45391 -3.94737,1.32597 -3.94737,-2.74572 z"
   id="path170" /><path
   style="fill:#ffffff;stroke-width:1.43541"
   d="m 584.92823,435.56122 c 0,-2.57181 0.59672,-4.02214 1.44035,-3.50075 0.79219,0.4896 7.413,2.43376 14.71291,4.32036 l 13.27258,3.43017 -14.71292,0.0706 -14.71292,0.0706 z"
   id="path171" /><path
   style="fill:#ffffff;stroke-width:1.43541"
   d="m 454.40224,296.77033 0.096,-9.68899 1.87782,6.00624 c 3.92025,12.53894 3.97183,13.37175 0.82829,13.37175 -2.63052,0 -2.88929,-0.89476 -2.80214,-9.689 z"
   id="path172" /><path
   style="fill:#ffffff;stroke-width:1.43541"
   d="m 444.28016,303.94737 c 0.012,-0.59211 0.87292,-3.92304 1.91319,-7.40207 2.08703,-6.97983 3.80665,-5.36617 3.80665,3.5721 0,3.94959 -0.55991,4.90652 -2.87081,4.90652 -1.57895,0 -2.86101,-0.48445 -2.84903,-1.07655 z"
   id="path173" /><path
   style="fill:#ffffff;stroke-width:1.43541"
   d=""
   id="path174" /><path
   style="fill:#ffffff;stroke-width:1.43541"
   d="m 454.84984,633.58914 c 0.4151,-2.68455 1.15166,-9.07957 1.63681,-14.21115 1.58681,-16.78435 6.23943,-37.77715 8.92341,-40.26275 1.39289,-1.28994 7.82033,-3.71549 14.2832,-5.3901 23.79998,-6.16687 38.08278,-13.25726 63.46489,-31.50577 2.10787,-1.51545 2.99154,-1.28009 5.59381,1.4899 l 3.09048,3.28967 -7.50397,9.99335 c -12.87133,17.14131 -21.06247,35.90267 -28.31504,64.85407 -1.37251,5.47889 -2.09027,6.21118 -7.52144,7.67364 -10.47687,2.82113 -33.73227,7.02864 -44.25193,8.00634 l -10.15494,0.94381 z"
   id="path175" /><path
   style="fill:#ffffff;stroke-width:1.43541"
   d="m 450,610.94961 c 0,-3.77042 -5.68601,-28.01098 -7.80502,-33.27429 -0.73325,-1.82128 0.0298,-2.12074 4.17152,-1.63721 l 5.06891,0.59176 v 19.22095 c 0,10.57152 -0.32297,19.22095 -0.71771,19.22095 -0.39473,0 -0.7177,-1.85497 -0.7177,-4.12216 z"
   id="path176" /><path
   style="fill:#ffffff;stroke-width:1.43541"
   d="m 454.41593,586.1722 c -0.0964,-8.36402 0.2393,-9.61285 2.7611,-10.27232 3.50345,-0.91617 3.5022,-1.0422 0.10411,10.46376 l -2.7555,9.33014 z"
   id="path177" /><path
   style="fill:#ffffff;stroke-width:1.43541"
   d="m 553.50187,538.43993 -2.98015,-3.17222 7.25067,-9.97835 c 10.20166,-14.03951 20.5849,-36.10432 25.21402,-53.58085 2.16984,-8.19189 4.77898,-15.72817 5.79809,-16.74728 3.07821,-3.07821 41.87022,-10.67124 54.63655,-10.69439 4.13435,-0.007 4.66504,0.4406 4.66479,3.9389 -4.3e-4,6.05633 -5.38347,37.5024 -7.80581,45.59911 -3.09268,10.33737 -4.77408,11.97032 -14.08396,13.67822 -15.66653,2.87402 -39.90108,13.82874 -58.28379,26.34596 l -11.43026,7.78313 z"
   id="path178" /><path
   style="fill:#ffffff;stroke-width:1.43541"
   d="m 631.57895,437.55128 c -10.87967,-1.35251 -34.57633,-6.66062 -38.86542,-8.70594 -5.24344,-2.50043 -6.49468,-4.95341 -10.07648,-19.75443 -4.5457,-18.7841 -14.14141,-38.41526 -27.07869,-55.39828 l -5.02351,-6.59446 3.23567,-3.03975 3.23568,-3.03976 12.02309,8.59438 c 15.85582,11.3341 29.60335,17.69347 50.73866,23.47083 l 17.375,4.74946 1.96083,5.58095 c 2.23925,6.37336 8.98234,44.59201 8.98234,50.91032 0,4.00874 -0.2669,4.18274 -6.10047,3.97708 -3.35527,-0.11829 -8.03828,-0.45597 -10.4067,-0.7504 z"
   id="path179" /><path
   style="fill:#ffffff;stroke-width:1.43541"
   d="m 534.689,334.12325 c -14.08422,-10.44029 -36.2553,-20.97406 -52.39235,-24.89229 -17.94832,-4.35802 -18.73466,-4.99882 -21.41109,-17.44819 -2.63663,-12.26423 -5.14393,-32.20386 -5.14393,-40.90779 v -6.13814 h 6.54322 c 11.81796,0 38.08625,4.80283 48.35487,8.84108 2.8093,1.10479 4.31579,3.0465 5.24567,6.76111 8.05303,32.16963 14.70363,46.40273 34.23974,73.27725 1.51195,2.07989 1.2824,2.95648 -1.43541,5.48151 l -3.23517,3.0057 z"
   id="path180" /><path
   style="fill:#ffffff;stroke-width:1.43541"
   d="m 353.15765,338.09088 c -2.46996,-2.72927 -2.32398,-3.12565 4.62557,-12.55981 13.64559,-18.52418 21.79699,-36.59999 26.88778,-59.62389 l 2.46013,-11.12632 7.39137,-2.12158 c 13.11873,-3.76554 28.63556,-6.61801 40.76458,-7.49379 10.93157,-0.78931 11.85693,-0.64552 12.03488,1.87011 0.75804,10.71631 -2.6891,33.1659 -7.46881,48.64078 -2.23676,7.24179 -3.58671,9.47257 -6.05484,10.00556 -28.77841,6.21474 -41.90075,11.4675 -61.37335,24.56722 -8.71523,5.86296 -16.04185,10.65993 -16.28137,10.65993 -0.23952,0 -1.58319,-1.2682 -2.98594,-2.81821 z"
   id="path181" /><path
   style="fill:#ffffff;stroke-width:1.43541"
   d="m 253.34928,435.63649 c 0,-5.40626 4.39756,-32.26197 7.33975,-44.82358 l 2.93628,-12.53637 5.98639,-1.62674 c 33.00857,-8.9697 47.86219,-15.44688 65.63134,-28.6197 9.76207,-7.23692 10.16568,-7.39092 12.89568,-4.9203 1.55002,1.40275 2.81822,2.94862 2.81822,3.43527 0,0.48666 -3.31033,5.39252 -7.35628,10.90193 -4.04595,5.50942 -10.19978,15.81951 -13.67517,22.91133 -5.83215,11.90096 -7.61964,16.96935 -14.01829,39.74849 -2.7527,9.7996 -2.43766,9.65774 -32.8873,14.80891 -26.47689,4.4791 -29.67062,4.55669 -29.67062,0.72076 z"
   id="path182" /><path
   style="fill:#ffffff;stroke-width:1.43541"
   d="m 335.24613,534.57405 c -17.30388,-13.53221 -28.75386,-18.88322 -54.62412,-25.52789 -13.19905,-3.39013 -15.30511,-4.35751 -16.9497,-7.78559 -2.11789,-4.41465 -8.12334,-34.39887 -9.61997,-48.0309 l -0.98493,-8.9713 5.52371,0.006 c 12.58883,0.0132 53.96356,8.566 55.79813,11.53441 0.39763,0.64337 2.25402,7.1916 4.12533,14.55163 5.74797,22.60734 13.12901,38.09018 26.9704,56.5745 3.00958,4.01911 5.47196,7.95608 5.47196,8.74882 0,1.38073 -4.59944,6.22319 -5.85465,6.16401 -0.33258,-0.0157 -4.76785,-3.28425 -9.85616,-7.26347 z"
   id="path183" /><path
   style="fill:#ffffff;stroke-width:1.43541"
   d="m 433.49282,637.07914 c -21.5754,-2.65045 -44.26753,-7.82931 -45.9034,-10.47621 -0.44628,-0.72209 -2.43829,-7.76434 -4.4267,-15.64944 -5.98057,-23.71621 -12.82455,-38.13759 -26.14577,-55.09337 l -6.58424,-8.38069 3.49178,-3.46502 3.49178,-3.46502 9.74876,7.57381 c 16.49249,12.81301 33.2683,20.06475 65.13744,28.15718 l 5.98668,1.52018 3.00908,12.81705 c 2.78869,11.87825 7.17939,39.11296 7.24007,44.90871 0.0269,2.565 -3.68634,2.94824 -15.04548,1.55282 z"
   id="path184" /></svg>
